<svg xmlns="http://www.w3.org/2000/svg" width="1920" height="1080" viewBox="0 0 1920 1080">
<g stroke="#8ed5ff" stroke-opacity="0.28" stroke-width="0.6" fill="none" stroke-linecap="round">
<polyline points="2305.4,1090.4 2343.2,1167.3"/>
<polyline points="281.3,273.2 344.3,238.7 409.3,207.5 476.3,179.7 544.9,155.3 615.0,134.7 686.5,117.7 759.0,104.4 832.4,95.0 906.5,89.6 981.0,88.0 1055.8,90.4 1130.5,96.8 1204.9,107.1 1278.9,121.4 1352.1,139.7 1424.4,161.8 1495.4,187.8 1565.1,217.5 1633.1,250.9 1699.2,287.8 1763.3,328.2 1825.0,372.0 1884.3,418.9 1940.9,468.9 1994.6,521.8 2045.3,577.4 2092.8,635.5 2137.0,695.9 2177.6,758.5 2214.8,823.0 2248.2,889.3 2277.8,957.1 2303.5,1026.1 2325.4,1096.3 2343.2,1167.3"/>
<polyline points="-440.8,1568.7 -466.7,1518.0 -489.4,1465.2 -508.6,1410.5 -524.2,1354.0 -535.7,1295.7 -542.9,1235.8 -545.7,1174.5 -543.6,1111.8 -536.4,1048.0 -524.0,983.4 -506.0,918.1 -482.3,852.4 -452.7,786.8 -416.9,721.4 -375.0,656.7 -326.9,593.1 -272.5,530.9 -212.0,470.6 -145.4,412.7 -72.8,357.5 5.3,305.6 88.7,257.3 177.0,213.1 269.8,173.3 366.5,138.3 466.5,108.4 569.2,83.9 673.9,65.0 779.9,51.8 886.4,44.4 992.9,42.8 1098.5,47.1 1202.6,57.1 1304.4,72.7 1403.4,93.6 1499.1,119.5 1590.8,150.3 1678.1,185.5 1760.7,224.9 1838.3,267.9 1910.5,314.3 1977.2,363.6 2038.2,415.4 2093.6,469.4 2143.2,525.1 2187.2,582.3 2225.5,640.5 2258.3,699.5 2285.7,759.0 2308.0,818.6 2325.2,878.1 2337.6,937.3 2345.3,996.0 2348.7,1054.0 2347.9,1111.1 2343.2,1167.3"/>
<polyline points="-412.3,1721.3 -462.7,1703.9 -512.2,1684.5 -560.6,1663.3 -607.5,1639.9 -652.7,1614.3 -695.6,1586.3 -735.8,1555.8 -772.8,1522.7 -806.1,1486.9 -834.9,1448.3 -858.7,1406.7 -876.5,1362.1 -887.5,1314.6 -890.9,1264.0 -885.7,1210.6 -871.0,1154.3 -845.8,1095.6 -809.2,1034.6 -760.3,971.9 -698.5,907.8 -623.3,843.1 -534.3,778.5 -431.5,714.8 -315.4,652.8 -186.4,593.7 -45.9,538.2 104.9,487.5 264.1,442.3 429.6,403.3 599.2,371.4 770.3,346.8 940.5,329.8 1107.6,320.5 1269.3,318.8 1423.7,324.3 1569.1,336.7 1704.4,355.2 1828.6,379.2 1941.1,408.1 2041.7,441.1 2130.3,477.4 2207.2,516.5 2272.7,557.6 2327.5,600.3 2372.2,643.9 2407.4,688.0 2434.0,732.2 2452.6,776.3 2463.9,819.9 2468.8,862.8 2467.8,904.8 2461.6,945.8 2450.7,985.8 2435.6,1024.5 2417.0,1062.1 2395.1,1098.4 2370.4,1133.5 2343.2,1167.3"/>
<polyline points="-431.6,1785.0 -494.4,1802.8 -558.5,1821.1 -623.7,1840.0 -689.9,1859.6 -756.9,1879.7 -824.5,1900.5 -892.4,1921.8 -960.3,1943.6 -1027.5,1965.9 -1093.4,1988.5 -1157.2,2011.3 -1217.8,2034.2 -1274.1,2056.8 -1324.3,2078.9 -1366.6,2100.1 -1398.8,2119.9 -1418.2,2137.6 -1421.9,2152.5 -1406.5,2163.9 -1368.5,2170.6 -1304.4,2171.8 -1210.7,2166.3 -1084.6,2153.1 -924.3,2131.3 -729.3,2100.4 -501.2,2060.0 -243.5,2010.5 38.3,1952.8 336.5,1888.2 642.5,1818.6 947.1,1746.1 1241.4,1672.9 1517.7,1601.2 1770.2,1532.7 1994.8,1468.8 2189.6,1410.7 2353.9,1358.7 2489.0,1313.1 2596.6,1273.9 2679.2,1240.7 2739.6,1213.0 2780.7,1190.3 2805.2,1172.2 2815.7,1158.0 2814.4,1147.3 2803.3,1139.5 2784.2,1134.3 2758.7,1131.3 2727.9,1130.2 2692.9,1130.6 2654.7,1132.3 2613.9,1135.2 2571.2,1139.0 2527.1,1143.5 2481.9,1148.7 2436.0,1154.5 2389.7,1160.7 2343.2,1167.3"/>
<polyline points="-434.5,1845.9 -500.0,1898.8 -567.7,1955.8 -637.7,2017.3 -710.0,2084.0 -784.7,2156.3 -861.7,2234.9 -941.1,2320.5 -1022.6,2414.0 -1106.1,2516.1 -1191.3,2627.9 -1277.5,2750.5 -1364.2,2885.0 -1450.0,3032.7 -1533.7,3194.9 -1613.2,3372.8 -1685.8,3567.5 -1747.9,3779.8 -1795.0,4009.9 -1821.2,4257.2 -1819.4,4519.7 -1781.0,4793.4 -1696.6,5071.6 -1556.2,5344.7 -1350.6,5599.4 -1073.7,5819.1 -724.0,5985.6 -307.3,6080.9 162.3,6091.1 663.3,6009.1 1169.3,5837.2 1653.5,5587.1 2093.1,5277.1 2472.5,4928.8 2783.7,4563.5 3026.3,4199.0 3204.9,3848.8 3327.1,3521.7 3401.9,3222.5 3438.2,2953.0 3444.0,2712.9 3426.4,2500.8 3391.3,2314.3 3343.1,2150.9 3285.8,2008.1 3222.1,1883.4 3154.2,1774.5 3083.8,1679.4 3012.2,1596.4 2940.2,1523.8 2868.6,1460.3 2797.8,1404.7 2728.2,1356.0 2660.0,1313.3 2593.3,1275.9 2528.3,1243.1 2464.9,1214.4 2403.2,1189.2 2343.2,1167.3"/>
<polyline points="-420.1,1894.8 -477.3,1975.3 -535.8,2062.5 -595.5,2157.1 -656.6,2259.9 -718.7,2371.7 -781.8,2493.7 -845.6,2627.0 -909.8,2772.8 -973.9,2932.6 -1037.4,3108.0 -1099.4,3300.7 -1158.9,3512.5 -1214.5,3745.5 -1264.2,4001.7 -1305.9,4282.9 -1336.4,4591.0 -1352.2,4927.2 -1348.6,5291.9 -1320.2,5684.1 -1260.4,6100.7 -1162.2,6535.9 -1018.0,6980.1 -821.0,7419.2 -565.9,7834.0 -250.4,8201.1 122.6,8494.2 544.3,8687.6 999.6,8760.2 1467.8,8700.0 1926.2,8507.2 2352.7,8194.5 2729.7,7784.4 3045.7,7305.4 3296.1,6786.9 3482.4,6255.2 3609.7,5731.4 3686.1,5230.8 3720.0,4763.1 3719.9,4333.3 3693.4,3943.3 3647.0,3592.5 3586.1,3279.0 3514.9,2999.9 3436.9,2752.2 3354.5,2532.6 3269.8,2338.1 3184.2,2165.9 3098.8,2013.2 3014.3,1877.9 2931.2,1757.7 2850.0,1651.0 2770.9,1556.0 2694.0,1471.5 2619.3,1396.1 2546.9,1328.8 2476.8,1268.8 2409.0,1215.2 2343.2,1167.3"/>
<polyline points="-390.6,1924.0 -430.2,2019.4 -469.0,2121.3 -506.6,2230.2 -542.8,2346.8 -577.2,2471.5 -609.3,2604.9 -638.6,2747.6 -664.5,2900.2 -686.1,3063.2 -702.7,3237.2 -713.1,3422.6 -716.3,3619.6 -710.7,3828.4 -695.1,4048.9 -667.5,4280.5 -626.1,4522.2 -569.1,4772.5 -494.3,5029.1 -399.7,5288.9 -283.6,5547.7 -144.4,5800.5 18.6,6041.0 205.6,6262.2 415.5,6456.5 646.2,6616.0 894.0,6733.3 1154.2,6801.9 1420.8,6817.1 1687.2,6776.6 1946.4,6680.6 2191.9,6532.1 2417.9,6336.5 2620.0,6100.9 2795.1,5833.9 2941.7,5544.1 3059.6,5240.2 3149.8,4930.1 3214.1,4620.3 3254.9,4316.5 3275.0,4022.8 3277.2,3742.2 3264.1,3476.8 3238.4,3227.7 3202.3,2995.5 3157.8,2780.0 3106.9,2580.9 3050.8,2397.6 2991.0,2229.2 2928.5,2074.9 2864.2,1933.6 2798.7,1804.4 2732.6,1686.5 2666.3,1578.8 2600.3,1480.5 2534.8,1391.0 2470.0,1309.4 2406.1,1235.0 2343.2,1167.3"/>
<polyline points="-367.8,2025.5 -381.8,2125.1 -392.6,2228.9 -399.8,2336.8 -403.1,2448.8 -402.1,2564.9 -396.3,2685.0 -385.3,2808.9 -368.6,2936.2 -345.7,3066.8 -316.0,3200.0 -279.2,3335.3 -234.6,3472.1 -181.9,3609.4 -120.5,3746.3 -50.1,3881.6 29.6,4014.0 118.7,4142.1 217.3,4264.2 325.3,4378.6 442.2,4483.6 567.5,4577.2 700.5,4657.7 840.0,4723.3 984.9,4772.6 1133.8,4804.0 1284.8,4816.7 1436.4,4809.9 1586.6,4783.3 1733.6,4737.0 1875.6,4671.7 2011.0,4588.2 2138.2,4488.0 2255.9,4372.5 2363.2,4243.9 2459.2,4103.9 2543.5,3954.9 2616.0,3798.8 2676.5,3637.8 2725.4,3473.7 2763.0,3308.5 2790.0,3143.6 2806.9,2980.4 2814.5,2820.2 2813.6,2663.9 2805.0,2512.4 2789.4,2366.2 2767.5,2225.9 2740.2,2091.7 2708.1,1963.8 2671.8,1842.4 2631.9,1727.5 2589.0,1618.9 2543.4,1516.7 2495.7,1420.6 2446.2,1330.4 2395.3,1246.1 2343.2,1167.3"/>
<polyline points="-276.7,2164.7 -258.8,2249.8 -236.9,2335.1 -210.7,2420.4 -180.3,2505.4 -145.5,2589.8 -106.3,2673.3 -62.5,2755.5 -14.3,2836.1 38.4,2914.5 95.7,2990.5 157.4,3063.6 223.4,3133.3 293.7,3199.2 368.0,3260.8 446.1,3317.7 527.9,3369.5 612.9,3415.6 700.9,3455.7 791.5,3489.4 884.2,3516.3 978.7,3536.1 1074.3,3548.6 1170.7,3553.5 1267.3,3550.8 1363.5,3540.2 1458.8,3521.8 1552.7,3495.6 1644.4,3461.7 1733.7,3420.4 1819.8,3371.9 1902.4,3316.4 1981.0,3254.4 2055.1,3186.3 2124.5,3112.5 2188.8,3033.5 2247.8,2949.9 2301.2,2862.2 2349.0,2771.1 2390.9,2676.9 2427.0,2580.4 2457.2,2482.1 2481.6,2382.5 2500.3,2282.2 2513.3,2181.6 2520.9,2081.2 2523.3,1981.4 2520.5,1882.7 2512.8,1785.4 2500.5,1689.8 2483.8,1596.2 2463.0,1505.0 2438.3,1416.3 2409.9,1330.3 2378.1,1247.3 2343.2,1167.3"/>
<polyline points="2276.5,1940.8 2301.8,1874.9 2323.4,1807.5 2341.3,1738.8 2355.4,1669.1 2365.7,1598.4 2372.0,1527.0 2374.3,1455.2 2372.6,1383.0 2366.8,1310.9 2357.0,1238.9 2343.2,1167.3"/>
<polyline points="2334.7,1222.3 2343.2,1167.3"/>
<polyline points="-441.7,2051.9 -453.4,2046.0 -464.3,2038.6 -474.5,2029.6 -483.9,2019.1 -492.4,2007.3 -499.9,1994.0 -506.3,1979.5 -511.7,1963.8 -516.0,1947.0 -519.2,1929.2 -521.2,1910.5 -522.1,1891.1 -521.8,1871.0 -520.3,1850.5 -517.7,1829.6 -514.0,1808.4 -509.3,1787.2 -503.6,1766.1 -496.8,1745.1 -489.2,1724.4 -480.8,1704.1 -471.6,1684.3 -461.6,1665.1 -451.1,1646.6 -440.0,1628.9 -428.4,1612.0"/>
<polyline points="-319.7,2038.1 -333.8,2045.1 -348.0,2050.9 -362.1,2055.4 -376.1,2058.5 -389.9,2060.2 -403.5,2060.4 -416.7,2059.1 -429.5,2056.3 -441.7,2051.9"/>
<polyline points="-662.0,2898.1 -713.5,2892.9 -763.2,2879.4 -810.4,2857.1 -854.3,2826.0 -894.4,2786.0 -929.8,2737.3 -960.0,2680.3 -984.5,2615.7 -1002.9,2544.2 -1014.9,2466.8 -1020.5,2384.5 -1019.6,2298.7 -1012.5,2210.4 -999.5,2120.9 -980.9,2031.4 -957.3,1942.9 -929.3,1856.4 -897.3,1772.8 -862.1,1692.7 -824.2,1616.8 -784.2,1545.4 -742.7,1478.9 -700.0,1417.5 -656.8,1361.2 -613.3,1310.1 -569.9,1264.0 -527.0,1223.0 -484.6,1186.7 -443.1,1155.0 -402.7,1127.8"/>
<polyline points="-59.6,2475.3 -94.3,2524.5 -131.4,2572.8 -170.8,2619.7 -212.5,2664.9 -256.5,2707.9 -302.5,2748.0 -350.6,2784.8 -400.3,2817.6 -451.5,2845.7 -503.7,2868.5 -556.5,2885.3 -609.5,2895.4 -662.0,2898.1"/>
<polyline points="-674.6,4196.2 -792.1,4249.0 -911.4,4279.9 -1030.2,4285.0 -1145.2,4261.0 -1253.2,4205.1 -1350.7,4115.9 -1434.1,3993.4 -1500.6,3839.5 -1547.8,3657.7 -1574.3,3452.9 -1580.0,3231.3 -1565.6,2999.4 -1532.7,2763.9 -1483.6,2530.8 -1421.2,2305.4 -1348.2,2091.8 -1267.6,1892.8 -1181.8,1710.5 -1093.2,1545.7 -1003.7,1398.6 -914.6,1268.7 -827.3,1155.3 -742.6,1057.2 -661.0,973.4 -583.0,902.4 -508.7,843.1 -438.3,794.3 -371.8,754.8 -309.1,723.6 -250.1,699.7 -194.6,682.4"/>
<polyline points="336.0,2773.9 301.0,2870.4 261.6,2970.3 217.6,3073.4 168.5,3179.5 113.9,3288.2 53.4,3398.9 -13.5,3510.8 -87.2,3623.0 -167.8,3734.0 -255.7,3842.1 -350.7,3945.2 -452.7,4040.7 -560.9,4125.5 -674.6,4196.2"/>
<polyline points="-89.5,5868.7 -251.4,6117.5 -431.3,6340.2 -626.6,6519.9 -832.6,6636.8 -1041.5,6670.2 -1242.6,6601.7 -1423.8,6418.8 -1572.4,6119.6 -1678.3,5714.6 -1735.1,5226.3 -1742.3,4685.2 -1704.0,4124.2 -1628.1,3572.9 -1524.1,3054.5 -1401.6,2583.8 -1268.9,2168.4 -1132.8,1809.9 -998.0,1506.0 -867.8,1252.2 -744.4,1042.9 -628.6,872.2 -521.0,734.5 -421.6,624.7 -330.0,538.4 -245.7,471.7 -168.4,421.3 -97.3,384.6 -31.9,359.4 28.2,343.5 83.7,335.7 134.8,334.5"/>
<polyline points="802.1,2976.5 785.3,3112.0 764.8,3256.6 740.3,3411.2 711.0,3576.4 676.1,3753.2 634.7,3942.3 585.8,4144.2 528.0,4359.3 460.1,4587.8 380.4,4828.9 287.2,5081.3 178.9,5342.1 53.7,5606.9 -89.5,5868.7"/>
<polyline points="1419.1,6796.8 1386.2,7243.4 1336.1,7687.1 1264.8,8100.9 1168.8,8446.0 1046.0,8672.2 898.1,8724.2 731.4,8553.8 557.3,8137.1 390.9,7489.1 246.6,6665.2 134.8,5746.4 59.4,4816.4 18.5,3941.8 6.6,3164.0 16.7,2500.2 42.2,1950.7 77.7,1505.8 118.8,1151.6 162.7,873.1 207.3,656.8 251.4,490.7 294.1,364.8 334.9,271.1 373.8,203.0 410.5,155.3 445.2,123.9 477.9,105.6 508.7,97.8 537.7,98.4 565.1,105.7 590.9,118.6 615.4,136.0"/>
<polyline points="1297.8,2853.4 1312.6,2991.8 1327.6,3140.8 1342.7,3301.8 1357.9,3476.0 1373.1,3665.2 1387.9,3871.1 1402.3,4095.7 1415.9,4341.2 1428.2,4609.7 1438.6,4903.7 1446.2,5225.1 1449.8,5575.7 1448.0,5955.9 1438.6,6364.5 1419.1,6796.8"/>
<polyline points="2889.5,5628.5 3010.8,5880.4 3129.7,6106.7 3240.1,6288.3 3333.4,6402.2 3399.7,6423.5 3428.6,6329.2 3411.4,6104.0 3343.4,5746.0 3225.7,5270.3 3065.7,4707.4 2875.9,4097.4 2670.6,3481.2 2463.3,2893.6 2264.9,2358.6 2082.4,1889.2 1919.6,1489.5 1777.5,1156.9 1655.7,885.6 1552.4,667.8 1465.7,495.6 1393.4,361.7 1333.5,259.3 1283.9,182.8 1243.2,127.4 1209.9,89.2 1182.9,65.0 1161.0,52.1 1143.6,48.3 1129.8,52.1 1119.2,61.9 1111.2,76.8 1105.4,95.7"/>
<polyline points="1752.0,2684.3 1792.7,2805.8 1836.7,2935.4 1884.2,3073.7 1935.7,3221.7 1991.7,3380.2 2052.5,3550.0 2118.7,3732.0 2190.9,3927.0 2269.5,4135.5 2355.1,4358.0 2448.0,4594.0 2548.4,4842.4 2656.1,5100.9 2770.3,5365.2 2889.5,5628.5"/>
<polyline points="3268.7,3646.7 3358.5,3675.8 3441.0,3680.9 3513.0,3658.1 3570.8,3603.6 3610.9,3515.1 3630.2,3391.4 3626.2,3233.5 3597.8,3044.5 3545.1,2829.6 3469.9,2595.6 3375.0,2350.3 3264.3,2101.6 3142.2,1857.2 3013.2,1623.3 2881.5,1405.0 2750.7,1205.6 2623.6,1027.0 2502.3,869.8 2388.4,733.7 2282.6,617.8 2185.4,520.6 2096.8,440.4 2016.5,375.4 1944.1,323.9 1879.2,284.3 1821.1,255.0 1769.4,234.7 1723.5,222.1 1682.8,216.1 1646.8,215.9 1615.1,220.6 1587.3,229.5"/>
<polyline points="2116.3,2357.9 2166.9,2441.3 2220.9,2527.3 2278.7,2616.1 2340.3,2707.4 2406.0,2800.9 2476.0,2896.3 2550.4,2993.0 2629.2,3090.2 2712.3,3186.8 2799.4,3281.5 2890.2,3372.4 2983.8,3457.3 3079.2,3533.6 3174.8,3597.9 3268.7,3646.7"/>
<polyline points="2987.6,2228.0 3019.7,2205.6 3046.9,2174.9 3068.7,2135.8 3084.4,2088.3 3093.4,2032.5 3095.3,1969.1 3089.9,1898.6 3077.2,1822.0 3057.1,1740.3 3030.0,1654.7 2996.4,1566.6 2956.9,1477.2 2912.2,1387.8 2863.2,1299.8 2810.7,1214.1 2755.6,1131.9 2698.7,1053.9 2640.9,980.8 2582.9,913.1 2525.4,851.0 2468.9,794.7 2413.8,744.4 2360.7,699.9 2309.7,661.0 2261.0,627.6 2214.9,599.5 2171.4,576.2 2130.6,557.5 2092.4,543.2 2056.9,532.8 2023.9,526.1 1993.5,522.8 1965.5,522.6"/>
<polyline points="2300.4,1874.5 2338.3,1915.2 2377.8,1955.2 2418.6,1994.4 2460.8,2032.3 2504.3,2068.7 2548.9,2103.2 2594.4,2135.3 2640.7,2164.6 2687.3,2190.6 2734.0,2212.6 2780.3,2230.1 2825.8,2242.5 2869.9,2249.0 2912.0,2249.2 2951.5,2242.4 2987.6,2228.0"/>
<polyline points="2554.7,1420.0 2559.9,1409.6 2564.0,1398.0 2566.9,1385.1 2568.5,1371.0 2569.0,1355.9 2568.1,1339.7 2566.0,1322.5 2562.7,1304.6 2558.1,1286.0 2552.3,1266.8 2545.3,1247.2 2537.3,1227.3 2528.1,1207.2 2518.0,1187.1 2507.0,1167.1 2495.2,1147.3 2482.6,1127.9 2469.4,1108.9 2455.6,1090.4 2441.4,1072.7 2426.8,1055.7 2411.9,1039.5 2396.9,1024.3 2381.8,1010.0 2366.7,996.7 2351.7,984.5 2336.8,973.4 2322.1,963.5 2307.8,954.6 2293.7,946.9 2280.1,940.3 2267.0,934.9 2254.3,930.6 2242.2,927.4 2230.6,925.3"/>
<polyline points="2358.3,1397.1 2372.1,1407.2 2386.0,1416.4 2399.9,1424.8 2413.7,1432.2 2427.4,1438.7 2440.9,1444.1 2454.1,1448.3 2467.0,1451.4 2479.4,1453.3 2491.4,1453.9 2502.8,1453.2 2513.5,1451.1 2523.5,1447.7 2532.7,1442.8 2541.0,1436.6 2548.4,1429.0 2554.7,1420.0"/>
</g>
<g fill="#8ed5ff">
<circle cx="136.9" cy="370.6" r="1.27" opacity="0.002"/>
<circle cx="1848.3" cy="421.6" r="2.44" opacity="0.002"/>
<circle cx="1901.8" cy="468.5" r="1.62" opacity="0.003"/>
<circle cx="266.0" cy="286.0" r="1.74" opacity="0.003"/>
<circle cx="639.0" cy="137.4" r="2.37" opacity="0.006"/>
<circle cx="227.9" cy="307.3" r="2.47" opacity="0.010"/>
<circle cx="1648.6" cy="281.4" r="1.32" opacity="0.010"/>
<circle cx="998.8" cy="99.5" r="1.92" opacity="0.012"/>
<circle cx="598.6" cy="146.3" r="1.93" opacity="0.014"/>
<circle cx="190.0" cy="330.0" r="2.48" opacity="0.017"/>
<circle cx="1885.4" cy="449.2" r="1.67" opacity="0.017"/>
<circle cx="321.9" cy="252.5" r="1.66" opacity="0.018"/>
<circle cx="1832.7" cy="404.6" r="1.38" opacity="0.018"/>
<circle cx="152.4" cy="354.2" r="2.47" opacity="0.023"/>
<circle cx="283.1" cy="271.9" r="1.91" opacity="0.025"/>
<circle cx="660.7" cy="129.2" r="1.67" opacity="0.027"/>
<circle cx="115.3" cy="380.0" r="1.56" opacity="0.028"/>
<circle cx="244.7" cy="292.5" r="1.65" opacity="0.031"/>
<circle cx="1923.4" cy="479.7" r="1.41" opacity="0.031"/>
<circle cx="1024.9" cy="97.7" r="1.15" opacity="0.032"/>
<circle cx="1869.4" cy="430.9" r="1.89" opacity="0.033"/>
<circle cx="619.9" cy="137.6" r="1.87" opacity="0.035"/>
<circle cx="206.3" cy="314.5" r="1.17" opacity="0.038"/>
<circle cx="982.3" cy="95.3" r="1.43" opacity="0.041"/>
<circle cx="579.2" cy="147.1" r="1.15" opacity="0.043"/>
<circle cx="168.4" cy="338.1" r="2.15" opacity="0.044"/>
<circle cx="300.7" cy="258.0" r="1.48" opacity="0.046"/>
<circle cx="1907.0" cy="459.8" r="2.14" opacity="0.046"/>
<circle cx="1668.3" cy="284.8" r="1.95" opacity="0.048"/>
<circle cx="1854.0" cy="413.2" r="2.11" opacity="0.049"/>
<circle cx="130.7" cy="363.3" r="2.29" opacity="0.049"/>
<circle cx="261.7" cy="278.1" r="2.02" opacity="0.053"/>
<circle cx="93.5" cy="390.0" r="1.45" opacity="0.055"/>
<circle cx="641.6" cy="129.1" r="2.14" opacity="0.057"/>
<circle cx="223.0" cy="299.6" r="2.08" opacity="0.059"/>
<circle cx="1008.5" cy="93.1" r="1.39" opacity="0.061"/>
<circle cx="1891.0" cy="440.9" r="1.78" opacity="0.062"/>
<circle cx="1402.5" cy="162.9" r="1.71" opacity="0.063"/>
<circle cx="184.6" cy="322.5" r="2.29" opacity="0.065"/>
<circle cx="146.5" cy="347.0" r="1.28" opacity="0.071"/>
<circle cx="279.2" cy="264.0" r="1.86" opacity="0.074"/>
<circle cx="1928.9" cy="471.3" r="2.14" opacity="0.075"/>
<circle cx="108.7" cy="373.0" r="1.54" opacity="0.076"/>
<circle cx="1875.4" cy="422.7" r="2.47" opacity="0.079"/>
<circle cx="240.0" cy="284.9" r="2.14" opacity="0.081"/>
<circle cx="1035.1" cy="91.6" r="2.26" opacity="0.081"/>
<circle cx="1558.9" cy="221.3" r="1.77" opacity="0.082"/>
<circle cx="1688.3" cy="289.1" r="2.25" opacity="0.084"/>
<circle cx="201.2" cy="307.1" r="1.65" opacity="0.087"/>
<circle cx="1388.1" cy="154.4" r="1.80" opacity="0.088"/>
<circle cx="991.9" cy="88.8" r="1.74" opacity="0.090"/>
<circle cx="1639.9" cy="260.2" r="1.70" opacity="0.091"/>
<circle cx="1912.9" cy="451.8" r="2.27" opacity="0.091"/>
<circle cx="162.6" cy="331.0" r="2.36" opacity="0.092"/>
<circle cx="1860.1" cy="405.4" r="2.11" opacity="0.097"/>
<circle cx="124.4" cy="356.3" r="1.91" opacity="0.097"/>
<circle cx="1592.0" cy="234.3" r="1.89" opacity="0.098"/>
<circle cx="86.5" cy="383.2" r="2.43" opacity="0.102"/>
<circle cx="257.5" cy="270.5" r="1.88" opacity="0.102"/>
<circle cx="1419.4" cy="161.9" r="1.27" opacity="0.105"/>
<circle cx="218.1" cy="292.2" r="2.50" opacity="0.108"/>
<circle cx="1897.4" cy="433.2" r="2.27" opacity="0.109"/>
<circle cx="1625.9" cy="248.5" r="1.06" opacity="0.113"/>
<circle cx="179.1" cy="315.3" r="2.61" opacity="0.114"/>
<circle cx="140.3" cy="339.9" r="1.13" opacity="0.119"/>
<circle cx="1708.9" cy="294.0" r="2.53" opacity="0.119"/>
<circle cx="1578.0" cy="223.4" r="1.09" opacity="0.121"/>
<circle cx="102.1" cy="366.1" r="2.41" opacity="0.124"/>
<circle cx="275.2" cy="256.5" r="0.98" opacity="0.124"/>
<circle cx="1882.1" cy="415.3" r="2.47" opacity="0.127"/>
<circle cx="1660.0" cy="264.1" r="2.52" opacity="0.128"/>
<circle cx="64.1" cy="394.0" r="1.92" opacity="0.128"/>
<circle cx="235.4" cy="277.5" r="1.58" opacity="0.130"/>
<circle cx="1162.8" cy="97.6" r="1.97" opacity="0.131"/>
<circle cx="1404.9" cy="153.3" r="1.11" opacity="0.131"/>
<circle cx="776.2" cy="94.8" r="1.39" opacity="0.133"/>
<circle cx="195.8" cy="300.0" r="2.37" opacity="0.136"/>
<circle cx="1830.4" cy="372.4" r="2.52" opacity="0.136"/>
<circle cx="1611.8" cy="237.1" r="2.34" opacity="0.136"/>
<circle cx="1919.4" cy="444.5" r="2.42" opacity="0.137"/>
<circle cx="156.7" cy="324.0" r="1.69" opacity="0.141"/>
<circle cx="1563.9" cy="212.6" r="2.19" opacity="0.145"/>
<circle cx="117.8" cy="349.6" r="1.28" opacity="0.145"/>
<circle cx="1867.2" cy="398.1" r="1.49" opacity="0.147"/>
<circle cx="1436.9" cy="161.4" r="0.88" opacity="0.147"/>
<circle cx="1192.1" cy="99.6" r="1.57" opacity="0.149"/>
<circle cx="79.5" cy="376.8" r="2.42" opacity="0.150"/>
<circle cx="690.4" cy="106.0" r="2.15" opacity="0.150"/>
<circle cx="1646.0" cy="252.2" r="2.65" opacity="0.151"/>
<circle cx="253.1" cy="263.2" r="1.84" opacity="0.152"/>
<circle cx="41.6" cy="405.5" r="0.91" opacity="0.153"/>
<circle cx="1729.9" cy="299.8" r="1.59" opacity="0.154"/>
<circle cx="1904.3" cy="426.1" r="1.59" opacity="0.156"/>
<circle cx="213.2" cy="285.2" r="1.88" opacity="0.157"/>
<circle cx="647.6" cy="113.6" r="2.47" opacity="0.159"/>
<circle cx="1147.0" cy="91.9" r="1.95" opacity="0.159"/>
<circle cx="1597.7" cy="225.9" r="2.25" opacity="0.160"/>
<circle cx="757.4" cy="93.5" r="2.00" opacity="0.162"/>
<circle cx="173.4" cy="308.5" r="2.18" opacity="0.162"/>
<circle cx="1469.3" cy="170.6" r="2.20" opacity="0.164"/>
<circle cx="1680.8" cy="268.7" r="1.73" opacity="0.164"/>
<circle cx="1852.5" cy="381.7" r="2.63" opacity="0.167"/>
<circle cx="134.1" cy="333.3" r="2.48" opacity="0.167"/>
<circle cx="714.2" cy="99.0" r="2.34" opacity="0.171"/>
<circle cx="95.2" cy="359.8" r="2.63" opacity="0.171"/>
<circle cx="1632.0" cy="240.6" r="2.66" opacity="0.174"/>
<circle cx="56.8" cy="387.8" r="1.69" opacity="0.175"/>
<circle cx="1889.5" cy="408.6" r="2.60" opacity="0.176"/>
<circle cx="1715.8" cy="286.6" r="1.79" opacity="0.177"/>
<circle cx="1176.4" cy="93.6" r="1.97" opacity="0.177"/>
<circle cx="230.7" cy="270.6" r="2.61" opacity="0.179"/>
<circle cx="670.8" cy="106.0" r="2.57" opacity="0.180"/>
<circle cx="782.2" cy="87.7" r="1.55" opacity="0.183"/>
<circle cx="1926.9" cy="437.9" r="1.44" opacity="0.184"/>
<circle cx="1583.7" cy="215.1" r="1.27" opacity="0.184"/>
<circle cx="190.6" cy="293.3" r="1.66" opacity="0.184"/>
<circle cx="1666.7" cy="256.6" r="2.38" opacity="0.187"/>
<circle cx="1751.5" cy="306.2" r="2.06" opacity="0.188"/>
<circle cx="150.7" cy="317.4" r="2.34" opacity="0.189"/>
<circle cx="1454.9" cy="161.5" r="2.05" opacity="0.189"/>
<circle cx="738.4" cy="92.7" r="1.90" opacity="0.192"/>
<circle cx="111.3" cy="343.2" r="1.40" opacity="0.194"/>
<circle cx="1874.9" cy="391.7" r="2.24" opacity="0.196"/>
<circle cx="72.2" cy="370.6" r="2.53" opacity="0.197"/>
<circle cx="1617.9" cy="229.4" r="1.38" opacity="0.198"/>
<circle cx="1701.8" cy="274.0" r="2.64" opacity="0.199"/>
<circle cx="33.9" cy="399.6" r="1.86" opacity="0.200"/>
<circle cx="694.7" cy="98.8" r="1.99" opacity="0.201"/>
<circle cx="248.8" cy="256.3" r="2.49" opacity="0.201"/>
<circle cx="1912.2" cy="419.9" r="2.19" opacity="0.204"/>
<circle cx="1488.1" cy="171.4" r="2.65" opacity="0.205"/>
<circle cx="208.0" cy="278.4" r="1.80" opacity="0.207"/>
<circle cx="1569.6" cy="204.7" r="2.30" opacity="0.208"/>
<circle cx="650.9" cy="106.4" r="0.95" opacity="0.209"/>
<circle cx="1652.8" cy="244.8" r="2.02" opacity="0.211"/>
<circle cx="1737.5" cy="292.9" r="1.93" opacity="0.211"/>
<circle cx="167.8" cy="302.0" r="2.33" opacity="0.211"/>
<circle cx="763.2" cy="86.6" r="2.52" opacity="0.213"/>
<circle cx="127.7" cy="327.1" r="2.23" opacity="0.216"/>
<circle cx="607.4" cy="115.3" r="2.32" opacity="0.217"/>
<circle cx="1521.5" cy="182.4" r="2.51" opacity="0.219"/>
<circle cx="88.2" cy="353.7" r="2.21" opacity="0.220"/>
<circle cx="719.0" cy="92.2" r="2.12" opacity="0.221"/>
<circle cx="1604.0" cy="218.5" r="1.54" opacity="0.222"/>
<circle cx="49.3" cy="382.0" r="1.48" opacity="0.223"/>
<circle cx="1687.9" cy="261.7" r="2.07" opacity="0.223"/>
<circle cx="10.8" cy="412.1" r="2.30" opacity="0.225"/>
<circle cx="1897.7" cy="402.5" r="2.31" opacity="0.225"/>
<circle cx="226.1" cy="264.0" r="1.41" opacity="0.229"/>
<circle cx="674.8" cy="98.9" r="1.78" opacity="0.230"/>
<circle cx="1267.5" cy="103.4" r="2.25" opacity="0.231"/>
<circle cx="1555.6" cy="194.5" r="1.37" opacity="0.234"/>
<circle cx="185.2" cy="286.8" r="1.88" opacity="0.234"/>
<circle cx="1723.6" cy="280.1" r="1.62" opacity="0.234"/>
<circle cx="1638.9" cy="233.4" r="2.02" opacity="0.235"/>
<circle cx="144.7" cy="311.2" r="1.83" opacity="0.238"/>
<circle cx="630.7" cy="107.2" r="2.02" opacity="0.239"/>
<circle cx="104.6" cy="337.3" r="2.08" opacity="0.242"/>
<circle cx="743.9" cy="85.9" r="2.05" opacity="0.242"/>
<circle cx="1759.5" cy="299.9" r="1.36" opacity="0.245"/>
<circle cx="1507.3" cy="173.0" r="2.12" opacity="0.245"/>
<circle cx="65.0" cy="364.8" r="1.62" opacity="0.245"/>
<circle cx="586.8" cy="116.8" r="2.23" opacity="0.247"/>
<circle cx="1590.0" cy="207.8" r="1.54" opacity="0.247"/>
<circle cx="1674.1" cy="249.8" r="2.74" opacity="0.247"/>
<circle cx="1883.5" cy="386.1" r="2.66" opacity="0.247"/>
<circle cx="26.0" cy="394.1" r="1.48" opacity="0.248"/>
<circle cx="1299.1" cy="108.3" r="2.13" opacity="0.248"/>
<circle cx="699.2" cy="92.0" r="2.70" opacity="0.251"/>
<circle cx="1920.8" cy="414.2" r="0.99" opacity="0.253"/>
<circle cx="203.1" cy="272.1" r="2.73" opacity="0.256"/>
<circle cx="1709.8" cy="267.5" r="1.41" opacity="0.258"/>
<circle cx="1252.0" cy="96.9" r="1.36" opacity="0.258"/>
<circle cx="1541.5" cy="184.8" r="2.27" opacity="0.259"/>
<circle cx="1625.0" cy="222.4" r="1.30" opacity="0.260"/>
<circle cx="654.7" cy="99.5" r="1.67" opacity="0.260"/>
<circle cx="162.0" cy="295.9" r="2.49" opacity="0.260"/>
<circle cx="769.2" cy="80.2" r="2.48" opacity="0.263"/>
<circle cx="1331.0" cy="114.1" r="2.30" opacity="0.264"/>
<circle cx="121.3" cy="321.2" r="1.77" opacity="0.264"/>
<circle cx="81.2" cy="348.1" r="0.99" opacity="0.268"/>
<circle cx="610.2" cy="108.5" r="1.97" opacity="0.268"/>
<circle cx="1745.9" cy="286.8" r="2.76" opacity="0.268"/>
<circle cx="1205.1" cy="87.3" r="1.25" opacity="0.269"/>
<circle cx="41.5" cy="376.7" r="2.15" opacity="0.270"/>
<circle cx="1493.0" cy="163.8" r="2.05" opacity="0.271"/>
<circle cx="1660.2" cy="238.2" r="2.31" opacity="0.271"/>
<circle cx="724.2" cy="85.5" r="2.04" opacity="0.272"/>
<circle cx="2.5" cy="406.8" r="1.28" opacity="0.272"/>
<circle cx="1576.0" cy="197.6" r="2.04" opacity="0.272"/>
<circle cx="1283.7" cy="101.6" r="2.30" opacity="0.275"/>
<circle cx="1906.7" cy="397.4" r="1.57" opacity="0.275"/>
<circle cx="565.8" cy="118.6" r="2.02" opacity="0.276"/>
<circle cx="1782.1" cy="307.8" r="2.02" opacity="0.277"/>
<circle cx="679.1" cy="92.4" r="2.09" opacity="0.281"/>
<circle cx="1696.0" cy="255.5" r="2.51" opacity="0.283"/>
<circle cx="179.7" cy="280.8" r="1.63" opacity="0.283"/>
<circle cx="1611.0" cy="211.7" r="2.64" opacity="0.285"/>
<circle cx="1527.3" cy="175.3" r="2.00" opacity="0.285"/>
<circle cx="1236.3" cy="90.9" r="1.93" opacity="0.287"/>
<circle cx="138.6" cy="305.4" r="1.34" opacity="0.287"/>
<circle cx="634.2" cy="100.5" r="1.26" opacity="0.289"/>
<circle cx="97.7" cy="331.7" r="1.64" opacity="0.290"/>
<circle cx="1315.7" cy="107.1" r="2.58" opacity="0.292"/>
<circle cx="749.8" cy="79.5" r="2.78" opacity="0.292"/>
<circle cx="1732.1" cy="274.2" r="1.96" opacity="0.292"/>
<circle cx="57.6" cy="359.6" r="1.22" opacity="0.293"/>
<circle cx="17.9" cy="389.1" r="1.57" opacity="0.295"/>
<circle cx="1646.6" cy="227.0" r="2.07" opacity="0.297"/>
<circle cx="589.4" cy="110.0" r="2.69" opacity="0.297"/>
<circle cx="1562.1" cy="187.7" r="2.26" opacity="0.298"/>
<circle cx="1892.9" cy="381.1" r="2.69" opacity="0.298"/>
<circle cx="704.2" cy="85.6" r="0.78" opacity="0.301"/>
<circle cx="1768.4" cy="294.5" r="2.38" opacity="0.301"/>
<circle cx="1268.1" cy="95.2" r="1.82" opacity="0.303"/>
<circle cx="198.0" cy="266.1" r="2.34" opacity="0.305"/>
<circle cx="1682.2" cy="243.8" r="2.09" opacity="0.307"/>
<circle cx="1348.5" cy="113.4" r="2.48" opacity="0.307"/>
<circle cx="156.2" cy="290.2" r="2.73" opacity="0.309"/>
<circle cx="658.8" cy="93.1" r="2.76" opacity="0.310"/>
<circle cx="1597.1" cy="201.4" r="2.52" opacity="0.310"/>
<circle cx="114.8" cy="315.7" r="1.52" opacity="0.313"/>
<circle cx="1220.5" cy="84.9" r="2.63" opacity="0.315"/>
<circle cx="73.9" cy="342.9" r="1.78" opacity="0.316"/>
<circle cx="1718.5" cy="262.0" r="2.38" opacity="0.317"/>
<circle cx="33.7" cy="371.6" r="1.51" opacity="0.318"/>
<circle cx="613.3" cy="101.8" r="2.08" opacity="0.319"/>
<circle cx="1300.5" cy="100.3" r="1.85" opacity="0.319"/>
<circle cx="-6.1" cy="402.2" r="0.82" opacity="0.319"/>
<circle cx="729.9" cy="79.4" r="1.97" opacity="0.322"/>
<circle cx="1632.7" cy="216.3" r="1.67" opacity="0.322"/>
<circle cx="1548.0" cy="178.0" r="0.91" opacity="0.324"/>
<circle cx="1916.5" cy="393.1" r="2.66" opacity="0.326"/>
<circle cx="1754.9" cy="281.7" r="2.67" opacity="0.326"/>
<circle cx="568.1" cy="112.2" r="1.60" opacity="0.327"/>
<circle cx="683.9" cy="86.1" r="2.52" opacity="0.331"/>
<circle cx="1252.3" cy="89.0" r="2.03" opacity="0.331"/>
<circle cx="174.3" cy="275.2" r="0.79" opacity="0.332"/>
<circle cx="1668.5" cy="232.6" r="2.49" opacity="0.332"/>
<circle cx="1791.7" cy="302.9" r="2.11" opacity="0.334"/>
<circle cx="1333.3" cy="106.5" r="2.04" opacity="0.335"/>
<circle cx="132.2" cy="300.1" r="1.64" opacity="0.336"/>
<circle cx="1583.1" cy="191.4" r="1.52" opacity="0.336"/>
<circle cx="90.8" cy="326.5" r="2.40" opacity="0.339"/>
<circle cx="638.0" cy="94.2" r="1.99" opacity="0.340"/>
<circle cx="49.8" cy="354.6" r="2.80" opacity="0.341"/>
<circle cx="1704.8" cy="250.2" r="2.51" opacity="0.342"/>
<circle cx="9.6" cy="384.5" r="2.57" opacity="0.343"/>
<circle cx="1204.3" cy="79.4" r="2.02" opacity="0.343"/>
<circle cx="1284.9" cy="94.0" r="2.65" opacity="0.347"/>
<circle cx="1618.8" cy="205.9" r="2.41" opacity="0.348"/>
<circle cx="592.1" cy="103.8" r="2.23" opacity="0.348"/>
<circle cx="1366.7" cy="113.4" r="1.97" opacity="0.350"/>
<circle cx="1741.3" cy="269.4" r="2.43" opacity="0.351"/>
<circle cx="709.6" cy="79.6" r="2.84" opacity="0.351"/>
<circle cx="1654.8" cy="221.7" r="1.03" opacity="0.358"/>
<circle cx="150.2" cy="284.9" r="2.24" opacity="0.359"/>
<circle cx="1778.2" cy="289.9" r="1.43" opacity="0.359"/>
<circle cx="1236.4" cy="83.2" r="0.84" opacity="0.360"/>
<circle cx="663.1" cy="87.0" r="1.23" opacity="0.360"/>
<circle cx="108.1" cy="310.7" r="2.52" opacity="0.362"/>
<circle cx="1569.1" cy="181.8" r="2.17" opacity="0.363"/>
<circle cx="1317.9" cy="99.8" r="1.01" opacity="0.363"/>
<circle cx="66.6" cy="338.2" r="2.87" opacity="0.364"/>
<circle cx="1400.5" cy="121.5" r="2.37" opacity="0.365"/>
<circle cx="1815.2" cy="312.2" r="2.51" opacity="0.365"/>
<circle cx="25.5" cy="367.2" r="2.27" opacity="0.366"/>
<circle cx="1691.2" cy="238.8" r="2.52" opacity="0.368"/>
<circle cx="616.9" cy="95.8" r="2.47" opacity="0.369"/>
<circle cx="455.4" cy="141.0" r="2.28" opacity="0.371"/>
<circle cx="1187.9" cy="74.2" r="0.80" opacity="0.372"/>
<circle cx="1604.9" cy="195.9" r="2.82" opacity="0.374"/>
<circle cx="1269.1" cy="87.9" r="2.23" opacity="0.376"/>
<circle cx="1727.8" cy="257.4" r="2.40" opacity="0.377"/>
<circle cx="570.5" cy="106.0" r="2.53" opacity="0.377"/>
<circle cx="1927.3" cy="389.6" r="1.22" opacity="0.378"/>
<circle cx="1351.5" cy="106.5" r="2.87" opacity="0.378"/>
<circle cx="689.0" cy="80.2" r="2.83" opacity="0.381"/>
<circle cx="168.6" cy="270.1" r="1.98" opacity="0.381"/>
<circle cx="1764.9" cy="277.5" r="2.37" opacity="0.384"/>
<circle cx="1641.0" cy="211.2" r="1.36" opacity="0.384"/>
<circle cx="126.0" cy="295.2" r="2.39" opacity="0.385"/>
<circle cx="83.6" cy="321.9" r="2.18" opacity="0.387"/>
<circle cx="1220.2" cy="77.7" r="2.19" opacity="0.388"/>
<circle cx="42.1" cy="350.3" r="0.90" opacity="0.389"/>
<circle cx="1554.9" cy="172.4" r="1.89" opacity="0.389"/>
<circle cx="642.0" cy="88.4" r="1.73" opacity="0.390"/>
<circle cx="1.1" cy="380.3" r="2.01" opacity="0.390"/>
<circle cx="1801.9" cy="299.0" r="2.06" opacity="0.391"/>
<circle cx="1302.2" cy="93.4" r="2.49" opacity="0.391"/>
<circle cx="1385.4" cy="114.1" r="1.75" opacity="0.393"/>
<circle cx="1677.6" cy="227.8" r="2.40" opacity="0.394"/>
<circle cx="1839.3" cy="322.3" r="2.40" opacity="0.396"/>
<circle cx="595.3" cy="97.9" r="2.46" opacity="0.398"/>
<circle cx="1171.3" cy="69.2" r="2.17" opacity="0.401"/>
<circle cx="1591.0" cy="186.1" r="1.36" opacity="0.401"/>
<circle cx="1714.3" cy="246.0" r="1.58" opacity="0.402"/>
<circle cx="1253.1" cy="82.1" r="2.55" opacity="0.404"/>
<circle cx="1336.1" cy="99.8" r="2.82" opacity="0.406"/>
<circle cx="1420.1" cy="122.7" r="1.97" opacity="0.406"/>
<circle cx="144.2" cy="280.1" r="1.89" opacity="0.407"/>
<circle cx="1751.5" cy="265.4" r="2.24" opacity="0.410"/>
<circle cx="668.0" cy="81.4" r="2.25" opacity="0.410"/>
<circle cx="101.4" cy="306.1" r="2.55" opacity="0.410"/>
<circle cx="1627.2" cy="201.1" r="0.78" opacity="0.411"/>
<circle cx="59.0" cy="333.9" r="2.39" opacity="0.412"/>
<circle cx="17.4" cy="363.2" r="2.11" opacity="0.414"/>
<circle cx="1788.7" cy="286.4" r="2.93" opacity="0.416"/>
<circle cx="1203.8" cy="72.6" r="2.31" opacity="0.417"/>
<circle cx="620.5" cy="90.1" r="2.81" opacity="0.419"/>
<circle cx="1286.4" cy="87.4" r="2.05" opacity="0.420"/>
<circle cx="1664.0" cy="217.3" r="2.61" opacity="0.420"/>
<circle cx="1370.3" cy="107.2" r="2.01" opacity="0.421"/>
<circle cx="455.5" cy="135.3" r="0.85" opacity="0.421"/>
<circle cx="1826.2" cy="309.0" r="1.74" opacity="0.422"/>
<circle cx="573.4" cy="100.5" r="2.50" opacity="0.427"/>
<circle cx="1577.0" cy="176.9" r="1.37" opacity="0.427"/>
<circle cx="1901.4" cy="359.3" r="2.50" opacity="0.428"/>
<circle cx="1700.9" cy="234.9" r="2.35" opacity="0.429"/>
<circle cx="1490.6" cy="143.1" r="2.50" opacity="0.432"/>
<circle cx="1236.9" cy="76.6" r="2.43" opacity="0.433"/>
<circle cx="119.4" cy="290.7" r="1.94" opacity="0.434"/>
<circle cx="1405.1" cy="115.4" r="2.49" opacity="0.434"/>
<circle cx="1320.4" cy="93.4" r="2.11" opacity="0.435"/>
<circle cx="76.5" cy="317.8" r="2.87" opacity="0.436"/>
<circle cx="1738.2" cy="253.9" r="2.77" opacity="0.436"/>
<circle cx="34.0" cy="346.4" r="2.80" opacity="0.438"/>
<circle cx="1613.4" cy="191.3" r="2.57" opacity="0.438"/>
<circle cx="-7.5" cy="376.8" r="1.98" opacity="0.438"/>
<circle cx="646.6" cy="82.9" r="2.79" opacity="0.440"/>
<circle cx="1775.5" cy="274.3" r="2.74" opacity="0.442"/>
<circle cx="1187.0" cy="67.8" r="2.38" opacity="0.446"/>
<circle cx="1650.3" cy="207.2" r="2.09" opacity="0.447"/>
<circle cx="1440.2" cy="124.8" r="1.54" opacity="0.447"/>
<circle cx="1813.2" cy="296.3" r="2.47" opacity="0.448"/>
<circle cx="598.7" cy="92.5" r="1.42" opacity="0.448"/>
<circle cx="1270.4" cy="81.6" r="1.88" opacity="0.448"/>
<circle cx="1354.8" cy="100.5" r="2.54" opacity="0.449"/>
<circle cx="1850.8" cy="319.9" r="1.63" opacity="0.452"/>
<circle cx="1888.6" cy="345.2" r="2.39" opacity="0.454"/>
<circle cx="1926.1" cy="372.3" r="1.57" opacity="0.455"/>
<circle cx="1687.4" cy="224.3" r="2.15" opacity="0.455"/>
<circle cx="94.4" cy="302.2" r="2.30" opacity="0.459"/>
<circle cx="673.1" cy="76.3" r="2.26" opacity="0.460"/>
<circle cx="1476.0" cy="135.2" r="2.95" opacity="0.460"/>
<circle cx="51.4" cy="330.1" r="2.78" opacity="0.461"/>
<circle cx="1220.4" cy="71.6" r="2.61" opacity="0.462"/>
<circle cx="8.9" cy="359.8" r="2.08" opacity="0.462"/>
<circle cx="1389.9" cy="108.6" r="2.83" opacity="0.462"/>
<circle cx="1724.8" cy="242.6" r="2.20" opacity="0.463"/>
<circle cx="1304.6" cy="87.5" r="2.71" opacity="0.463"/>
<circle cx="1599.5" cy="182.0" r="2.35" opacity="0.465"/>
<circle cx="624.8" cy="85.0" r="1.19" opacity="0.469"/>
<circle cx="1762.4" cy="262.6" r="1.47" opacity="0.469"/>
<circle cx="456.1" cy="130.0" r="2.84" opacity="0.471"/>
<circle cx="1512.0" cy="146.7" r="2.64" opacity="0.471"/>
<circle cx="1636.6" cy="197.3" r="1.76" opacity="0.474"/>
<circle cx="1800.3" cy="284.0" r="1.74" opacity="0.474"/>
<circle cx="1170.1" cy="63.2" r="1.58" opacity="0.475"/>
<circle cx="1425.3" cy="117.7" r="2.59" opacity="0.476"/>
<circle cx="1254.1" cy="76.4" r="2.27" opacity="0.477"/>
<circle cx="576.4" cy="95.3" r="0.98" opacity="0.477"/>
<circle cx="1339.2" cy="94.3" r="1.25" opacity="0.477"/>
<circle cx="1838.0" cy="306.9" r="2.55" opacity="0.478"/>
<circle cx="1875.9" cy="331.5" r="1.49" opacity="0.481"/>
<circle cx="1913.9" cy="357.9" r="1.83" opacity="0.482"/>
<circle cx="113.0" cy="286.8" r="1.76" opacity="0.482"/>
<circle cx="1673.9" cy="214.1" r="2.43" opacity="0.483"/>
<circle cx="69.1" cy="314.1" r="2.40" opacity="0.484"/>
<circle cx="26.1" cy="343.1" r="2.55" opacity="0.485"/>
<circle cx="1461.3" cy="127.8" r="1.85" opacity="0.488"/>
<circle cx="651.3" cy="78.1" r="2.82" opacity="0.489"/>
<circle cx="1711.5" cy="231.9" r="1.09" opacity="0.490"/>
<circle cx="1203.6" cy="66.9" r="1.45" opacity="0.491"/>
<circle cx="1374.5" cy="102.1" r="2.76" opacity="0.491"/>
<circle cx="1288.5" cy="81.8" r="2.82" opacity="0.492"/>
<circle cx="1749.3" cy="251.3" r="2.78" opacity="0.496"/>
<circle cx="602.6" cy="87.6" r="2.12" opacity="0.498"/>
<circle cx="1497.5" cy="138.8" r="2.25" opacity="0.499"/>
<circle cx="432.5" cy="135.3" r="1.75" opacity="0.500"/>
<circle cx="1787.3" cy="272.2" r="2.73" opacity="0.501"/>
<circle cx="1622.8" cy="187.9" r="2.41" opacity="0.502"/>
<circle cx="1410.1" cy="110.8" r="1.44" opacity="0.504"/>
<circle cx="1825.4" cy="294.5" r="2.30" opacity="0.505"/>
<circle cx="1237.6" cy="71.2" r="1.44" opacity="0.506"/>
<circle cx="1323.4" cy="88.4" r="2.21" opacity="0.506"/>
<circle cx="553.8" cy="98.7" r="1.36" opacity="0.506"/>
<circle cx="1863.4" cy="318.5" r="2.33" opacity="0.508"/>
<circle cx="87.5" cy="298.6" r="1.78" opacity="0.508"/>
<circle cx="1901.4" cy="344.0" r="2.36" opacity="0.509"/>
<circle cx="43.5" cy="326.9" r="2.75" opacity="0.509"/>
<circle cx="0.5" cy="356.8" r="2.39" opacity="0.510"/>
<circle cx="1660.3" cy="204.2" r="2.20" opacity="0.510"/>
<circle cx="1446.3" cy="120.5" r="0.95" opacity="0.516"/>
<circle cx="1698.2" cy="221.8" r="2.50" opacity="0.517"/>
<circle cx="629.3" cy="80.5" r="1.96" opacity="0.518"/>
<circle cx="1358.9" cy="95.8" r="2.31" opacity="0.519"/>
<circle cx="1186.6" cy="62.4" r="2.93" opacity="0.520"/>
<circle cx="1272.3" cy="76.6" r="2.80" opacity="0.521"/>
<circle cx="1736.1" cy="240.6" r="2.79" opacity="0.523"/>
<circle cx="580.0" cy="90.7" r="2.85" opacity="0.527"/>
<circle cx="1482.8" cy="131.3" r="2.36" opacity="0.528"/>
<circle cx="1774.4" cy="260.9" r="2.20" opacity="0.528"/>
<circle cx="1609.0" cy="179.0" r="2.66" opacity="0.529"/>
<circle cx="1812.7" cy="282.7" r="2.74" opacity="0.532"/>
<circle cx="1394.7" cy="104.2" r="2.34" opacity="0.532"/>
<circle cx="61.8" cy="311.0" r="3.03" opacity="0.533"/>
<circle cx="17.7" cy="340.4" r="2.84" opacity="0.534"/>
<circle cx="1307.3" cy="82.8" r="1.98" opacity="0.535"/>
<circle cx="1850.9" cy="306.0" r="2.42" opacity="0.535"/>
<circle cx="1220.8" cy="66.7" r="2.94" opacity="0.535"/>
<circle cx="1927.2" cy="357.6" r="2.18" opacity="0.536"/>
<circle cx="1889.2" cy="331.0" r="2.26" opacity="0.536"/>
<circle cx="1646.7" cy="194.8" r="2.47" opacity="0.538"/>
<circle cx="1519.9" cy="143.2" r="3.05" opacity="0.538"/>
<circle cx="1684.8" cy="211.9" r="2.95" opacity="0.545"/>
<circle cx="1431.2" cy="113.7" r="2.88" opacity="0.545"/>
<circle cx="606.7" cy="83.3" r="2.46" opacity="0.548"/>
<circle cx="1343.1" cy="90.0" r="1.65" opacity="0.548"/>
<circle cx="1169.3" cy="58.5" r="2.69" opacity="0.549"/>
<circle cx="432.8" cy="131.0" r="2.17" opacity="0.549"/>
<circle cx="1255.7" cy="71.7" r="1.55" opacity="0.550"/>
<circle cx="1723.2" cy="230.4" r="1.58" opacity="0.551"/>
<circle cx="1761.5" cy="250.1" r="3.07" opacity="0.556"/>
<circle cx="1468.0" cy="124.3" r="2.41" opacity="0.556"/>
<circle cx="1595.1" cy="170.4" r="2.92" opacity="0.557"/>
<circle cx="-8.2" cy="354.5" r="2.01" opacity="0.558"/>
<circle cx="1800.0" cy="271.3" r="2.60" opacity="0.560"/>
<circle cx="1379.2" cy="98.1" r="1.64" opacity="0.561"/>
<circle cx="1838.5" cy="294.1" r="1.65" opacity="0.563"/>
<circle cx="1915.2" cy="344.4" r="3.04" opacity="0.563"/>
<circle cx="1291.0" cy="77.6" r="2.38" opacity="0.564"/>
<circle cx="1877.0" cy="318.4" r="2.06" opacity="0.564"/>
<circle cx="1203.7" cy="62.3" r="2.77" opacity="0.564"/>
<circle cx="1633.2" cy="185.8" r="2.91" opacity="0.566"/>
<circle cx="1505.3" cy="135.7" r="2.84" opacity="0.567"/>
<circle cx="634.3" cy="76.3" r="2.09" opacity="0.568"/>
<circle cx="1671.4" cy="202.6" r="1.44" opacity="0.573"/>
<circle cx="1415.9" cy="107.3" r="2.04" opacity="0.573"/>
<circle cx="1543.1" cy="148.4" r="2.82" opacity="0.576"/>
<circle cx="1327.1" cy="84.6" r="2.23" opacity="0.577"/>
<circle cx="1151.7" cy="54.8" r="1.48" opacity="0.578"/>
<circle cx="1238.9" cy="67.2" r="2.07" opacity="0.579"/>
<circle cx="1710.0" cy="220.4" r="1.33" opacity="0.579"/>
<circle cx="1748.6" cy="239.8" r="2.77" opacity="0.584"/>
<circle cx="1453.1" cy="117.5" r="1.91" opacity="0.585"/>
<circle cx="1581.0" cy="162.2" r="1.53" opacity="0.586"/>
<circle cx="1787.4" cy="260.5" r="2.70" opacity="0.588"/>
<circle cx="1363.4" cy="92.5" r="2.82" opacity="0.590"/>
<circle cx="1826.1" cy="282.7" r="3.00" opacity="0.591"/>
<circle cx="1864.8" cy="306.4" r="2.21" opacity="0.592"/>
<circle cx="1903.3" cy="331.6" r="2.97" opacity="0.592"/>
<circle cx="1099.3" cy="49.0" r="2.74" opacity="0.592"/>
<circle cx="1274.5" cy="72.9" r="1.39" opacity="0.593"/>
<circle cx="1186.4" cy="58.5" r="2.83" opacity="0.593"/>
<circle cx="1619.4" cy="177.3" r="1.35" opacity="0.594"/>
<circle cx="1490.6" cy="128.7" r="1.41" opacity="0.595"/>
<circle cx="433.4" cy="127.1" r="2.55" opacity="0.599"/>
<circle cx="1657.8" cy="193.6" r="1.62" opacity="0.601"/>
<circle cx="1400.4" cy="101.3" r="2.62" opacity="0.602"/>
<circle cx="1528.6" cy="141.0" r="2.74" opacity="0.605"/>
<circle cx="1310.8" cy="79.5" r="1.90" opacity="0.606"/>
<circle cx="1696.8" cy="211.1" r="1.95" opacity="0.607"/>
<circle cx="1221.8" cy="63.1" r="2.51" opacity="0.608"/>
<circle cx="1735.6" cy="230.0" r="2.71" opacity="0.612"/>
<circle cx="1437.9" cy="111.0" r="1.61" opacity="0.613"/>
<circle cx="1566.8" cy="154.5" r="1.58" opacity="0.614"/>
<circle cx="1774.7" cy="250.2" r="3.01" opacity="0.616"/>
<circle cx="1813.6" cy="271.8" r="2.05" opacity="0.619"/>
<circle cx="1347.5" cy="87.0" r="2.63" opacity="0.619"/>
<circle cx="1891.4" cy="319.6" r="2.31" opacity="0.620"/>
<circle cx="1852.7" cy="294.9" r="2.43" opacity="0.620"/>
<circle cx="1081.0" cy="46.6" r="2.31" opacity="0.621"/>
<circle cx="1257.8" cy="68.4" r="2.84" opacity="0.622"/>
<circle cx="1605.5" cy="169.2" r="2.01" opacity="0.622"/>
<circle cx="1168.9" cy="55.0" r="2.31" opacity="0.623"/>
<circle cx="1475.6" cy="122.1" r="1.70" opacity="0.624"/>
<circle cx="408.6" cy="133.6" r="2.61" opacity="0.627"/>
<circle cx="1644.2" cy="185.0" r="2.99" opacity="0.629"/>
<circle cx="941.3" cy="42.1" r="1.27" opacity="0.630"/>
<circle cx="1384.7" cy="95.6" r="1.89" opacity="0.631"/>
<circle cx="1513.9" cy="134.1" r="2.93" opacity="0.634"/>
<circle cx="1294.2" cy="74.8" r="2.51" opacity="0.635"/>
<circle cx="1683.4" cy="202.1" r="2.36" opacity="0.636"/>
<circle cx="1204.4" cy="59.4" r="2.86" opacity="0.637"/>
<circle cx="1722.6" cy="220.6" r="1.32" opacity="0.641"/>
<circle cx="1422.5" cy="105.2" r="3.03" opacity="0.642"/>
<circle cx="1552.5" cy="147.2" r="2.52" opacity="0.643"/>
<circle cx="1762.0" cy="240.3" r="1.98" opacity="0.645"/>
<circle cx="1801.2" cy="261.6" r="2.09" opacity="0.647"/>
<circle cx="1918.6" cy="333.7" r="2.94" opacity="0.647"/>
<circle cx="974.5" cy="41.5" r="3.03" opacity="0.648"/>
<circle cx="1331.3" cy="82.0" r="1.73" opacity="0.648"/>
<circle cx="434.3" cy="123.9" r="1.32" opacity="0.648"/>
<circle cx="1879.6" cy="308.2" r="3.07" opacity="0.649"/>
<circle cx="1840.6" cy="284.2" r="3.18" opacity="0.649"/>
<circle cx="1591.5" cy="161.4" r="1.94" opacity="0.651"/>
<circle cx="1240.7" cy="64.5" r="2.58" opacity="0.651"/>
<circle cx="1150.9" cy="52.0" r="1.15" opacity="0.652"/>
<circle cx="1460.5" cy="115.8" r="3.03" opacity="0.653"/>
<circle cx="1630.5" cy="176.9" r="1.70" opacity="0.658"/>
<circle cx="921.0" cy="41.7" r="1.60" opacity="0.660"/>
<circle cx="1368.7" cy="90.4" r="2.90" opacity="0.660"/>
<circle cx="1499.2" cy="127.5" r="3.08" opacity="0.663"/>
<circle cx="1670.0" cy="193.7" r="3.18" opacity="0.664"/>
<circle cx="1277.4" cy="70.5" r="3.26" opacity="0.665"/>
<circle cx="1096.9" cy="46.6" r="3.10" opacity="0.666"/>
<circle cx="1186.7" cy="56.1" r="1.38" opacity="0.667"/>
<circle cx="1709.5" cy="211.7" r="1.56" opacity="0.669"/>
<circle cx="1537.9" cy="140.3" r="1.10" opacity="0.672"/>
<circle cx="1406.8" cy="99.6" r="2.63" opacity="0.672"/>
<circle cx="867.4" cy="43.5" r="1.51" opacity="0.672"/>
<circle cx="1749.2" cy="231.1" r="2.50" opacity="0.673"/>
<circle cx="1788.7" cy="251.8" r="2.92" opacity="0.676"/>
<circle cx="409.1" cy="130.8" r="2.27" opacity="0.676"/>
<circle cx="1907.2" cy="322.3" r="2.63" opacity="0.676"/>
<circle cx="954.5" cy="41.0" r="1.28" opacity="0.677"/>
<circle cx="1314.7" cy="77.5" r="1.76" opacity="0.677"/>
<circle cx="1828.5" cy="273.9" r="2.02" opacity="0.677"/>
<circle cx="1867.8" cy="297.4" r="1.93" opacity="0.678"/>
<circle cx="1577.3" cy="154.3" r="1.46" opacity="0.680"/>
<circle cx="1223.3" cy="60.9" r="1.13" opacity="0.681"/>
<circle cx="1445.2" cy="110.0" r="1.91" opacity="0.682"/>
<circle cx="1616.7" cy="169.4" r="2.60" opacity="0.687"/>
<circle cx="900.3" cy="41.8" r="1.81" opacity="0.689"/>
<circle cx="1352.5" cy="85.6" r="2.97" opacity="0.689"/>
<circle cx="1484.2" cy="121.4" r="1.86" opacity="0.692"/>
<circle cx="1656.5" cy="185.7" r="2.71" opacity="0.693"/>
<circle cx="988.4" cy="40.9" r="2.01" opacity="0.694"/>
<circle cx="1260.2" cy="66.8" r="1.52" opacity="0.694"/>
<circle cx="1168.6" cy="53.1" r="2.76" opacity="0.696"/>
<circle cx="1696.3" cy="203.3" r="2.85" opacity="0.698"/>
<circle cx="1390.9" cy="94.5" r="2.48" opacity="0.701"/>
<circle cx="1523.3" cy="133.8" r="1.37" opacity="0.701"/>
<circle cx="1736.3" cy="222.3" r="1.40" opacity="0.702"/>
<circle cx="1776.3" cy="242.5" r="3.05" opacity="0.705"/>
<circle cx="1895.8" cy="311.5" r="1.65" opacity="0.706"/>
<circle cx="933.9" cy="40.8" r="3.12" opacity="0.706"/>
<circle cx="1816.3" cy="264.0" r="2.77" opacity="0.707"/>
<circle cx="1298.0" cy="73.5" r="2.71" opacity="0.707"/>
<circle cx="1856.0" cy="287.0" r="2.59" opacity="0.707"/>
<circle cx="1563.0" cy="147.5" r="3.29" opacity="0.709"/>
<circle cx="1205.5" cy="57.7" r="2.87" opacity="0.710"/>
<circle cx="1429.6" cy="104.6" r="2.69" opacity="0.711"/>
<circle cx="1602.7" cy="162.3" r="1.40" opacity="0.716"/>
<circle cx="1336.0" cy="81.2" r="1.95" opacity="0.719"/>
<circle cx="879.1" cy="42.4" r="2.26" opacity="0.719"/>
<circle cx="1468.9" cy="115.7" r="3.28" opacity="0.721"/>
<circle cx="1642.9" cy="178.2" r="3.11" opacity="0.722"/>
<circle cx="968.2" cy="40.6" r="2.91" opacity="0.723"/>
<circle cx="1242.8" cy="63.3" r="2.01" opacity="0.723"/>
<circle cx="409.6" cy="128.6" r="1.19" opacity="0.725"/>
<circle cx="1683.0" cy="195.6" r="2.63" opacity="0.727"/>
<circle cx="1374.8" cy="89.9" r="2.36" opacity="0.730"/>
<circle cx="1508.4" cy="127.9" r="2.50" opacity="0.730"/>
<circle cx="1723.5" cy="214.0" r="2.46" opacity="0.731"/>
<circle cx="1924.1" cy="326.6" r="2.61" opacity="0.733"/>
<circle cx="1763.7" cy="233.8" r="2.65" opacity="0.734"/>
<circle cx="1884.3" cy="301.3" r="3.30" opacity="0.735"/>
<circle cx="913.0" cy="41.1" r="2.57" opacity="0.736"/>
<circle cx="1804.2" cy="254.8" r="2.82" opacity="0.736"/>
<circle cx="1280.9" cy="69.9" r="3.27" opacity="0.736"/>
<circle cx="1844.3" cy="277.4" r="1.34" opacity="0.736"/>
<circle cx="1548.4" cy="141.1" r="3.33" opacity="0.738"/>
<circle cx="490.3" cy="103.9" r="3.23" opacity="0.739"/>
<circle cx="1003.3" cy="41.0" r="2.90" opacity="0.739"/>
<circle cx="1187.4" cy="55.1" r="1.63" opacity="0.740"/>
<circle cx="1413.8" cy="99.6" r="1.41" opacity="0.741"/>
<circle cx="1588.5" cy="155.5" r="2.61" opacity="0.745"/>
<circle cx="857.5" cy="43.4" r="1.75" opacity="0.748"/>
<circle cx="1319.2" cy="77.3" r="2.41" opacity="0.748"/>
<circle cx="1453.4" cy="110.4" r="2.26" opacity="0.750"/>
<circle cx="1629.1" cy="171.2" r="2.95" opacity="0.751"/>
<circle cx="947.5" cy="40.6" r="3.11" opacity="0.753"/>
<circle cx="1225.0" cy="60.4" r="2.04" opacity="0.753"/>
<circle cx="1038.9" cy="42.4" r="2.60" opacity="0.755"/>
<circle cx="1669.6" cy="188.1" r="2.99" opacity="0.756"/>
<circle cx="1493.3" cy="122.4" r="1.97" opacity="0.759"/>
<circle cx="1358.3" cy="85.8" r="2.55" opacity="0.759"/>
<circle cx="1710.5" cy="206.2" r="2.92" opacity="0.761"/>
<circle cx="1913.1" cy="316.4" r="1.32" opacity="0.763"/>
<circle cx="1751.1" cy="225.7" r="2.78" opacity="0.764"/>
<circle cx="1872.9" cy="291.6" r="2.44" opacity="0.765"/>
<circle cx="891.7" cy="42.1" r="3.41" opacity="0.765"/>
<circle cx="1792.0" cy="246.3" r="1.32" opacity="0.765"/>
<circle cx="1263.4" cy="66.5" r="1.46" opacity="0.765"/>
<circle cx="1832.5" cy="268.3" r="2.35" opacity="0.766"/>
<circle cx="464.7" cy="110.8" r="2.78" opacity="0.767"/>
<circle cx="1533.7" cy="135.3" r="2.43" opacity="0.767"/>
<circle cx="982.9" cy="40.9" r="2.92" opacity="0.769"/>
<circle cx="1169.0" cy="52.9" r="1.15" opacity="0.769"/>
<circle cx="1397.7" cy="95.1" r="3.10" opacity="0.770"/>
<circle cx="1574.2" cy="149.5" r="2.94" opacity="0.775"/>
<circle cx="835.4" cy="45.3" r="1.57" opacity="0.777"/>
<circle cx="1302.2" cy="73.8" r="2.07" opacity="0.778"/>
<circle cx="1437.8" cy="105.6" r="2.82" opacity="0.780"/>
<circle cx="1615.1" cy="164.7" r="1.18" opacity="0.781"/>
<circle cx="926.4" cy="41.3" r="2.90" opacity="0.782"/>
<circle cx="1206.9" cy="58.0" r="1.47" opacity="0.782"/>
<circle cx="1018.7" cy="41.9" r="1.29" opacity="0.784"/>
<circle cx="1656.1" cy="181.3" r="2.76" opacity="0.786"/>
<circle cx="493.5" cy="102.6" r="2.63" opacity="0.788"/>
<circle cx="1478.0" cy="117.3" r="1.37" opacity="0.789"/>
<circle cx="1341.6" cy="82.0" r="2.59" opacity="0.789"/>
<circle cx="1697.3" cy="198.9" r="3.21" opacity="0.790"/>
<circle cx="1902.1" cy="306.9" r="2.41" opacity="0.793"/>
<circle cx="1738.4" cy="218.0" r="2.37" opacity="0.793"/>
<circle cx="869.8" cy="43.6" r="2.32" opacity="0.794"/>
<circle cx="438.6" cy="118.3" r="1.53" opacity="0.795"/>
<circle cx="1861.5" cy="282.7" r="3.27" opacity="0.795"/>
<circle cx="1779.6" cy="238.2" r="3.32" opacity="0.795"/>
<circle cx="1245.6" cy="64.0" r="2.95" opacity="0.795"/>
<circle cx="1820.7" cy="259.6" r="3.22" opacity="0.795"/>
<circle cx="1518.8" cy="130.0" r="2.66" opacity="0.797"/>
<circle cx="962.0" cy="41.3" r="1.90" opacity="0.798"/>
<circle cx="1150.2" cy="51.3" r="2.67" opacity="0.799"/>
<circle cx="1381.4" cy="91.2" r="3.42" opacity="0.799"/>
<circle cx="1055.5" cy="43.8" r="1.08" opacity="0.799"/>
<circle cx="1559.6" cy="143.7" r="2.98" opacity="0.804"/>
<circle cx="1284.7" cy="70.9" r="2.11" opacity="0.807"/>
<circle cx="1421.8" cy="101.4" r="1.92" opacity="0.809"/>
<circle cx="1601.0" cy="158.6" r="2.21" opacity="0.810"/>
<circle cx="904.8" cy="42.6" r="2.70" opacity="0.811"/>
<circle cx="1188.4" cy="56.2" r="2.22" opacity="0.812"/>
<circle cx="998.1" cy="42.1" r="1.60" opacity="0.814"/>
<circle cx="467.4" cy="109.8" r="1.52" opacity="0.815"/>
<circle cx="1642.4" cy="174.8" r="1.55" opacity="0.816"/>
<circle cx="1462.4" cy="112.6" r="3.04" opacity="0.818"/>
<circle cx="1324.6" cy="78.8" r="2.87" opacity="0.818"/>
<circle cx="1684.0" cy="192.2" r="1.09" opacity="0.820"/>
<circle cx="412.0" cy="126.5" r="2.68" opacity="0.822"/>
<circle cx="1891.0" cy="298.0" r="3.18" opacity="0.823"/>
<circle cx="1725.8" cy="210.7" r="1.44" opacity="0.823"/>
<circle cx="1227.5" cy="61.9" r="3.26" opacity="0.825"/>
<circle cx="1767.2" cy="230.6" r="2.68" opacity="0.825"/>
<circle cx="1850.0" cy="274.3" r="2.59" opacity="0.825"/>
<circle cx="1808.8" cy="251.8" r="2.69" opacity="0.825"/>
<circle cx="1503.6" cy="125.0" r="1.34" opacity="0.826"/>
<circle cx="940.7" cy="42.3" r="3.31" opacity="0.827"/>
<circle cx="1131.0" cy="50.2" r="1.24" opacity="0.828"/>
<circle cx="1035.2" cy="43.8" r="3.38" opacity="0.829"/>
<circle cx="1364.7" cy="87.7" r="1.76" opacity="0.829"/>
<circle cx="1544.9" cy="138.6" r="2.57" opacity="0.833"/>
<circle cx="496.9" cy="102.0" r="2.84" opacity="0.836"/>
<circle cx="1267.0" cy="68.4" r="2.88" opacity="0.837"/>
<circle cx="1405.5" cy="97.6" r="3.28" opacity="0.839"/>
<circle cx="1586.7" cy="153.2" r="1.56" opacity="0.840"/>
<circle cx="882.7" cy="44.3" r="1.94" opacity="0.840"/>
<circle cx="1169.6" cy="54.8" r="3.52" opacity="0.841"/>
<circle cx="440.8" cy="117.8" r="3.42" opacity="0.843"/>
<circle cx="977.1" cy="42.9" r="1.73" opacity="0.843"/>
<circle cx="1072.8" cy="46.3" r="2.73" opacity="0.843"/>
<circle cx="1628.7" cy="169.0" r="2.57" opacity="0.845"/>
<circle cx="1446.6" cy="108.7" r="2.98" opacity="0.848"/>
<circle cx="1307.2" cy="76.1" r="1.73" opacity="0.848"/>
<circle cx="1670.6" cy="186.1" r="1.47" opacity="0.849"/>
<circle cx="1920.8" cy="314.3" r="1.95" opacity="0.850"/>
<circle cx="1712.7" cy="204.2" r="1.12" opacity="0.853"/>
<circle cx="1879.9" cy="289.8" r="2.10" opacity="0.853"/>
<circle cx="1209.0" cy="60.2" r="2.22" opacity="0.854"/>
<circle cx="1754.6" cy="223.8" r="3.40" opacity="0.855"/>
<circle cx="1838.3" cy="266.5" r="2.37" opacity="0.855"/>
<circle cx="527.5" cy="94.9" r="1.74" opacity="0.856"/>
<circle cx="1796.8" cy="244.4" r="3.07" opacity="0.856"/>
<circle cx="1488.2" cy="120.8" r="2.80" opacity="0.856"/>
<circle cx="918.9" cy="43.9" r="1.99" opacity="0.857"/>
<circle cx="1111.3" cy="49.7" r="2.15" opacity="0.857"/>
<circle cx="1014.5" cy="44.2" r="1.06" opacity="0.858"/>
<circle cx="1347.7" cy="84.7" r="2.23" opacity="0.859"/>
<circle cx="470.4" cy="109.9" r="2.29" opacity="0.863"/>
<circle cx="1530.2" cy="133.9" r="2.77" opacity="0.863"/>
<circle cx="1248.8" cy="66.5" r="2.83" opacity="0.866"/>
<circle cx="616.5" cy="75.9" r="3.09" opacity="0.866"/>
<circle cx="1388.9" cy="94.3" r="3.20" opacity="0.868"/>
<circle cx="1572.2" cy="148.2" r="2.57" opacity="0.870"/>
<circle cx="1150.3" cy="53.8" r="2.88" opacity="0.871"/>
<circle cx="955.6" cy="44.2" r="2.41" opacity="0.872"/>
<circle cx="1052.4" cy="46.4" r="3.42" opacity="0.873"/>
<circle cx="1614.6" cy="163.7" r="3.58" opacity="0.875"/>
<circle cx="558.6" cy="88.3" r="3.54" opacity="0.875"/>
<circle cx="1430.4" cy="105.1" r="2.68" opacity="0.877"/>
<circle cx="1289.4" cy="73.9" r="1.79" opacity="0.877"/>
<circle cx="1656.9" cy="180.5" r="3.05" opacity="0.879"/>
<circle cx="1910.2" cy="306.4" r="2.02" opacity="0.880"/>
<circle cx="1699.6" cy="198.2" r="1.35" opacity="0.883"/>
<circle cx="500.9" cy="102.3" r="2.09" opacity="0.883"/>
<circle cx="1190.1" cy="59.0" r="3.16" opacity="0.884"/>
<circle cx="1868.7" cy="282.1" r="2.57" opacity="0.884"/>
<circle cx="1742.0" cy="217.4" r="3.33" opacity="0.885"/>
<circle cx="649.3" cy="70.9" r="2.62" opacity="0.885"/>
<circle cx="1826.7" cy="259.3" r="3.23" opacity="0.885"/>
<circle cx="896.6" cy="46.0" r="3.51" opacity="0.886"/>
<circle cx="1472.5" cy="117.0" r="3.08" opacity="0.886"/>
<circle cx="1784.6" cy="237.7" r="3.09" opacity="0.886"/>
<circle cx="1091.3" cy="49.5" r="3.41" opacity="0.887"/>
<circle cx="993.3" cy="45.3" r="2.21" opacity="0.888"/>
<circle cx="1330.4" cy="82.4" r="1.13" opacity="0.888"/>
<circle cx="443.3" cy="118.3" r="1.45" opacity="0.891"/>
<circle cx="1514.9" cy="129.8" r="3.34" opacity="0.893"/>
<circle cx="1230.3" cy="65.3" r="2.11" opacity="0.896"/>
<circle cx="1372.1" cy="91.7" r="2.14" opacity="0.898"/>
<circle cx="1557.4" cy="143.9" r="3.14" opacity="0.899"/>
<circle cx="1130.6" cy="53.5" r="3.46" opacity="0.900"/>
<circle cx="933.6" cy="46.0" r="3.07" opacity="0.900"/>
<circle cx="1031.6" cy="47.3" r="2.11" opacity="0.900"/>
<circle cx="532.3" cy="95.6" r="3.60" opacity="0.900"/>
<circle cx="683.1" cy="66.6" r="2.17" opacity="0.900"/>
<circle cx="1600.4" cy="159.1" r="3.33" opacity="0.900"/>
<circle cx="1271.3" cy="72.3" r="2.43" opacity="0.900"/>
<circle cx="1414.2" cy="102.1" r="2.82" opacity="0.900"/>
<circle cx="1643.2" cy="175.3" r="1.99" opacity="0.900"/>
<circle cx="474.0" cy="110.7" r="1.92" opacity="0.900"/>
<circle cx="1899.5" cy="298.9" r="2.99" opacity="0.900"/>
<circle cx="1686.3" cy="193.0" r="1.98" opacity="0.900"/>
<circle cx="1170.8" cy="58.5" r="3.56" opacity="0.900"/>
<circle cx="623.8" cy="77.0" r="3.18" opacity="0.900"/>
<circle cx="1857.5" cy="275.3" r="2.68" opacity="0.900"/>
<circle cx="1729.2" cy="211.7" r="1.90" opacity="0.900"/>
<circle cx="1456.5" cy="113.7" r="3.48" opacity="0.900"/>
<circle cx="1814.9" cy="252.8" r="3.41" opacity="0.900"/>
<circle cx="1772.3" cy="231.5" r="3.15" opacity="0.900"/>
<circle cx="1070.7" cy="50.1" r="3.12" opacity="0.900"/>
<circle cx="971.6" cy="46.9" r="3.24" opacity="0.900"/>
<circle cx="1312.9" cy="80.4" r="3.13" opacity="0.900"/>
<circle cx="717.6" cy="63.0" r="2.46" opacity="0.900"/>
<circle cx="564.7" cy="89.4" r="2.18" opacity="0.900"/>
<circle cx="1499.4" cy="126.3" r="3.14" opacity="0.900"/>
<circle cx="1211.6" cy="64.4" r="1.90" opacity="0.900"/>
<circle cx="1354.8" cy="89.6" r="3.53" opacity="0.900"/>
<circle cx="1542.3" cy="140.1" r="3.47" opacity="0.900"/>
<circle cx="1110.7" cy="53.9" r="2.70" opacity="0.900"/>
<circle cx="505.4" cy="103.6" r="3.65" opacity="0.900"/>
<circle cx="1010.2" cy="48.7" r="1.83" opacity="0.900"/>
<circle cx="657.8" cy="72.4" r="1.72" opacity="0.900"/>
<circle cx="1585.8" cy="154.9" r="3.27" opacity="0.900"/>
<circle cx="1252.9" cy="71.3" r="3.09" opacity="0.900"/>
<circle cx="1397.4" cy="99.8" r="2.96" opacity="0.900"/>
<circle cx="1629.2" cy="170.9" r="3.06" opacity="0.900"/>
<circle cx="597.6" cy="83.8" r="1.29" opacity="0.900"/>
<circle cx="1888.8" cy="292.2" r="3.46" opacity="0.900"/>
<circle cx="1151.0" cy="58.5" r="3.40" opacity="0.900"/>
<circle cx="1672.8" cy="188.1" r="1.31" opacity="0.900"/>
<circle cx="1846.2" cy="269.0" r="2.80" opacity="0.900"/>
<circle cx="1716.2" cy="206.6" r="2.37" opacity="0.900"/>
<circle cx="1440.3" cy="111.1" r="2.32" opacity="0.900"/>
<circle cx="1049.8" cy="51.3" r="3.21" opacity="0.900"/>
<circle cx="949.5" cy="49.2" r="2.65" opacity="0.900"/>
<circle cx="1759.8" cy="226.1" r="2.48" opacity="0.900"/>
<circle cx="1803.1" cy="246.9" r="3.09" opacity="0.900"/>
<circle cx="1294.9" cy="79.1" r="1.33" opacity="0.900"/>
<circle cx="692.6" cy="68.4" r="2.98" opacity="0.900"/>
<circle cx="537.8" cy="97.1" r="2.03" opacity="0.900"/>
<circle cx="1483.6" cy="123.3" r="3.68" opacity="0.900"/>
<circle cx="1192.3" cy="64.2" r="2.13" opacity="0.900"/>
<circle cx="1337.3" cy="88.0" r="3.05" opacity="0.900"/>
<circle cx="478.1" cy="112.4" r="3.12" opacity="0.900"/>
<circle cx="1090.1" cy="54.9" r="2.44" opacity="0.900"/>
<circle cx="1527.1" cy="136.7" r="3.08" opacity="0.900"/>
<circle cx="988.6" cy="50.7" r="3.33" opacity="0.900"/>
<circle cx="1571.0" cy="151.4" r="2.98" opacity="0.900"/>
<circle cx="1234.0" cy="70.8" r="2.58" opacity="0.900"/>
<circle cx="1380.3" cy="97.8" r="3.42" opacity="0.900"/>
<circle cx="728.2" cy="65.4" r="2.32" opacity="0.900"/>
<circle cx="1920.7" cy="310.2" r="3.63" opacity="0.900"/>
<circle cx="571.2" cy="91.2" r="3.59" opacity="0.900"/>
<circle cx="1614.9" cy="167.2" r="2.72" opacity="0.900"/>
<circle cx="1130.8" cy="59.2" r="2.26" opacity="0.900"/>
<circle cx="1659.1" cy="183.9" r="2.65" opacity="0.900"/>
<circle cx="1877.9" cy="286.2" r="2.89" opacity="0.900"/>
<circle cx="1028.3" cy="53.2" r="2.35" opacity="0.900"/>
<circle cx="1423.6" cy="108.9" r="3.44" opacity="0.900"/>
<circle cx="1703.1" cy="202.0" r="1.79" opacity="0.900"/>
<circle cx="1834.8" cy="263.4" r="3.15" opacity="0.900"/>
<circle cx="1747.3" cy="221.3" r="2.86" opacity="0.900"/>
<circle cx="1791.0" cy="241.8" r="2.76" opacity="0.900"/>
<circle cx="1276.4" cy="78.4" r="3.46" opacity="0.900"/>
<circle cx="510.4" cy="105.6" r="2.96" opacity="0.900"/>
<circle cx="666.9" cy="74.7" r="2.29" opacity="0.900"/>
<circle cx="1467.5" cy="121.1" r="3.74" opacity="0.900"/>
<circle cx="1172.5" cy="64.7" r="3.13" opacity="0.900"/>
<circle cx="1319.3" cy="87.0" r="1.64" opacity="0.900"/>
<circle cx="1069.0" cy="56.4" r="2.95" opacity="0.900"/>
<circle cx="1511.5" cy="134.2" r="3.21" opacity="0.900"/>
<circle cx="966.3" cy="53.4" r="1.63" opacity="0.900"/>
<circle cx="1556.0" cy="148.4" r="3.45" opacity="0.900"/>
<circle cx="702.7" cy="71.4" r="1.89" opacity="0.900"/>
<circle cx="1214.7" cy="71.0" r="2.47" opacity="0.900"/>
<circle cx="1362.9" cy="96.8" r="2.68" opacity="0.900"/>
<circle cx="543.9" cy="99.6" r="3.53" opacity="0.900"/>
<circle cx="1600.4" cy="163.9" r="2.96" opacity="0.900"/>
<circle cx="1910.4" cy="304.6" r="1.63" opacity="0.900"/>
<circle cx="1110.2" cy="60.6" r="3.24" opacity="0.900"/>
<circle cx="1645.2" cy="180.4" r="1.89" opacity="0.900"/>
<circle cx="1866.9" cy="281.0" r="3.66" opacity="0.900"/>
<circle cx="1006.4" cy="55.7" r="2.53" opacity="0.900"/>
<circle cx="1406.6" cy="107.4" r="3.72" opacity="0.900"/>
<circle cx="1689.8" cy="198.3" r="3.47" opacity="0.900"/>
<circle cx="1823.2" cy="258.5" r="3.41" opacity="0.900"/>
<circle cx="1257.6" cy="78.3" r="3.58" opacity="0.900"/>
<circle cx="1734.4" cy="217.1" r="3.62" opacity="0.900"/>
<circle cx="1778.8" cy="237.1" r="3.05" opacity="0.900"/>
<circle cx="1451.0" cy="119.2" r="3.01" opacity="0.900"/>
<circle cx="739.6" cy="68.7" r="2.19" opacity="0.900"/>
<circle cx="1152.3" cy="65.8" r="3.04" opacity="0.900"/>
<circle cx="578.2" cy="94.3" r="2.95" opacity="0.900"/>
<circle cx="1300.9" cy="86.7" r="3.14" opacity="0.900"/>
<circle cx="1047.4" cy="58.7" r="2.61" opacity="0.900"/>
<circle cx="1495.6" cy="132.2" r="1.51" opacity="0.900"/>
<circle cx="516.1" cy="108.7" r="2.82" opacity="0.900"/>
<circle cx="1540.6" cy="146.3" r="3.36" opacity="0.900"/>
<circle cx="1194.9" cy="71.9" r="3.65" opacity="0.900"/>
<circle cx="1345.0" cy="96.2" r="2.21" opacity="0.900"/>
<circle cx="777.2" cy="66.8" r="2.48" opacity="0.900"/>
<circle cx="1585.6" cy="161.3" r="2.75" opacity="0.900"/>
<circle cx="1089.0" cy="62.7" r="3.79" opacity="0.900"/>
<circle cx="1899.9" cy="299.7" r="3.43" opacity="0.900"/>
<circle cx="983.8" cy="58.7" r="3.27" opacity="0.900"/>
<circle cx="1631.0" cy="177.6" r="3.05" opacity="0.900"/>
<circle cx="613.7" cy="89.8" r="3.85" opacity="0.900"/>
<circle cx="1389.3" cy="106.6" r="1.55" opacity="0.900"/>
<circle cx="1855.8" cy="276.4" r="2.24" opacity="0.900"/>
<circle cx="1676.2" cy="195.1" r="2.87" opacity="0.900"/>
<circle cx="1238.3" cy="79.1" r="1.83" opacity="0.900"/>
<circle cx="1811.5" cy="254.4" r="2.52" opacity="0.900"/>
<circle cx="1721.5" cy="213.7" r="3.06" opacity="0.900"/>
<circle cx="1766.5" cy="233.4" r="2.41" opacity="0.900"/>
<circle cx="1434.2" cy="118.2" r="3.53" opacity="0.900"/>
<circle cx="550.6" cy="103.3" r="1.99" opacity="0.900"/>
<circle cx="1131.6" cy="67.6" r="3.50" opacity="0.900"/>
<circle cx="1282.1" cy="87.2" r="2.88" opacity="0.900"/>
<circle cx="1025.3" cy="61.6" r="1.01" opacity="0.900"/>
<circle cx="1479.3" cy="130.8" r="3.36" opacity="0.900"/>
<circle cx="1174.6" cy="73.5" r="2.35" opacity="0.900"/>
<circle cx="1524.9" cy="144.5" r="2.16" opacity="0.900"/>
<circle cx="1326.7" cy="96.3" r="2.41" opacity="0.900"/>
<circle cx="1067.3" cy="65.4" r="3.34" opacity="0.900"/>
<circle cx="1570.6" cy="159.4" r="2.34" opacity="0.900"/>
<circle cx="586.2" cy="98.4" r="3.29" opacity="0.900"/>
<circle cx="960.8" cy="62.8" r="3.10" opacity="0.900"/>
<circle cx="1889.3" cy="295.6" r="3.44" opacity="0.900"/>
<circle cx="1616.5" cy="175.5" r="3.41" opacity="0.900"/>
<circle cx="1371.6" cy="106.6" r="1.53" opacity="0.900"/>
<circle cx="1218.5" cy="80.3" r="2.65" opacity="0.900"/>
<circle cx="1844.8" cy="272.6" r="2.38" opacity="0.900"/>
<circle cx="1662.4" cy="192.6" r="2.32" opacity="0.900"/>
<circle cx="1799.5" cy="250.9" r="3.96" opacity="0.900"/>
<circle cx="1708.3" cy="210.9" r="3.38" opacity="0.900"/>
<circle cx="1753.9" cy="230.3" r="3.90" opacity="0.900"/>
<circle cx="1417.0" cy="117.7" r="2.09" opacity="0.900"/>
<circle cx="1110.4" cy="70.1" r="2.63" opacity="0.900"/>
<circle cx="790.7" cy="71.8" r="1.52" opacity="0.900"/>
<circle cx="1002.6" cy="65.3" r="2.12" opacity="0.900"/>
<circle cx="1262.8" cy="88.1" r="2.78" opacity="0.900"/>
<circle cx="895.9" cy="65.9" r="1.48" opacity="0.900"/>
<circle cx="1462.8" cy="130.3" r="2.43" opacity="0.900"/>
<circle cx="622.6" cy="94.4" r="3.86" opacity="0.900"/>
<circle cx="1153.9" cy="75.7" r="1.98" opacity="0.900"/>
<circle cx="1508.9" cy="143.5" r="2.48" opacity="0.900"/>
<circle cx="1308.0" cy="97.2" r="1.95" opacity="0.900"/>
<circle cx="1045.1" cy="68.7" r="2.09" opacity="0.900"/>
<circle cx="1923.6" cy="315.9" r="2.45" opacity="0.900"/>
<circle cx="830.4" cy="71.2" r="1.84" opacity="0.900"/>
<circle cx="1555.1" cy="158.3" r="3.60" opacity="0.900"/>
<circle cx="937.1" cy="67.4" r="1.99" opacity="0.900"/>
<circle cx="1601.7" cy="173.9" r="2.64" opacity="0.900"/>
<circle cx="1878.6" cy="292.2" r="1.22" opacity="0.900"/>
<circle cx="1353.4" cy="107.1" r="1.98" opacity="0.900"/>
<circle cx="1198.3" cy="82.2" r="1.44" opacity="0.900"/>
<circle cx="1648.2" cy="190.8" r="2.59" opacity="0.900"/>
<circle cx="1833.3" cy="269.6" r="1.93" opacity="0.900"/>
<circle cx="1694.9" cy="208.9" r="2.66" opacity="0.900"/>
<circle cx="1787.4" cy="248.2" r="3.68" opacity="0.900"/>
<circle cx="1741.4" cy="227.9" r="3.27" opacity="0.900"/>
<circle cx="1088.6" cy="73.2" r="4.04" opacity="0.900"/>
<circle cx="1399.5" cy="118.0" r="3.62" opacity="0.900"/>
<circle cx="979.4" cy="69.8" r="2.64" opacity="0.900"/>
<circle cx="1243.1" cy="90.0" r="2.10" opacity="0.900"/>
<circle cx="1445.7" cy="130.2" r="2.32" opacity="0.900"/>
<circle cx="1132.6" cy="78.7" r="1.99" opacity="0.900"/>
<circle cx="1492.6" cy="143.5" r="2.99" opacity="0.900"/>
<circle cx="1288.7" cy="98.5" r="1.65" opacity="0.900"/>
<circle cx="1022.3" cy="73.0" r="2.18" opacity="0.900"/>
<circle cx="804.8" cy="78.0" r="1.50" opacity="0.900"/>
<circle cx="912.9" cy="73.0" r="3.91" opacity="0.900"/>
<circle cx="1539.4" cy="157.8" r="3.40" opacity="0.900"/>
<circle cx="1913.4" cy="312.9" r="2.90" opacity="0.900"/>
<circle cx="1334.8" cy="108.4" r="1.66" opacity="0.900"/>
<circle cx="1586.7" cy="173.2" r="1.53" opacity="0.900"/>
<circle cx="632.4" cy="100.1" r="3.43" opacity="0.900"/>
<circle cx="1177.5" cy="85.0" r="1.55" opacity="0.900"/>
<circle cx="1867.8" cy="289.8" r="2.85" opacity="0.900"/>
<circle cx="1634.0" cy="189.9" r="2.90" opacity="0.900"/>
<circle cx="1821.8" cy="267.5" r="2.96" opacity="0.900"/>
<circle cx="1681.1" cy="207.5" r="3.39" opacity="0.900"/>
<circle cx="1775.2" cy="246.3" r="3.71" opacity="0.900"/>
<circle cx="1728.3" cy="226.3" r="2.51" opacity="0.900"/>
<circle cx="1066.3" cy="77.2" r="3.74" opacity="0.900"/>
<circle cx="1381.5" cy="119.2" r="4.00" opacity="0.900"/>
<circle cx="1222.9" cy="92.6" r="3.72" opacity="0.900"/>
<circle cx="1428.4" cy="130.9" r="3.72" opacity="0.900"/>
<circle cx="1110.8" cy="82.5" r="1.69" opacity="0.900"/>
<circle cx="1269.1" cy="100.9" r="2.59" opacity="0.900"/>
<circle cx="1475.8" cy="143.9" r="3.44" opacity="0.900"/>
<circle cx="1523.3" cy="158.0" r="3.40" opacity="0.900"/>
<circle cx="1903.1" cy="310.8" r="2.76" opacity="0.900"/>
<circle cx="1315.7" cy="110.3" r="1.87" opacity="0.900"/>
<circle cx="1156.2" cy="88.5" r="2.63" opacity="0.900"/>
<circle cx="1571.3" cy="173.2" r="1.81" opacity="0.900"/>
<circle cx="1856.7" cy="287.9" r="3.44" opacity="0.900"/>
<circle cx="1619.3" cy="189.6" r="2.37" opacity="0.900"/>
<circle cx="1810.0" cy="266.0" r="4.11" opacity="0.900"/>
<circle cx="1043.4" cy="82.0" r="2.84" opacity="0.900"/>
<circle cx="1667.1" cy="207.1" r="3.59" opacity="0.900"/>
<circle cx="1762.5" cy="245.3" r="1.72" opacity="0.900"/>
<circle cx="1715.1" cy="225.5" r="4.15" opacity="0.900"/>
<circle cx="1363.0" cy="121.0" r="2.72" opacity="0.900"/>
<circle cx="1202.1" cy="95.7" r="2.70" opacity="0.900"/>
<circle cx="1410.6" cy="132.7" r="3.70" opacity="0.900"/>
<circle cx="642.9" cy="107.0" r="3.64" opacity="0.900"/>
<circle cx="1088.4" cy="87.0" r="3.48" opacity="0.900"/>
<circle cx="1248.9" cy="104.0" r="2.22" opacity="0.900"/>
<circle cx="1458.7" cy="145.4" r="2.80" opacity="0.900"/>
<circle cx="1507.1" cy="159.2" r="3.32" opacity="0.900"/>
<circle cx="1296.1" cy="113.3" r="1.89" opacity="0.900"/>
<circle cx="1134.4" cy="92.9" r="3.83" opacity="0.900"/>
<circle cx="1892.6" cy="309.6" r="4.00" opacity="0.900"/>
<circle cx="1555.4" cy="174.2" r="2.72" opacity="0.900"/>
<circle cx="1845.5" cy="287.1" r="4.04" opacity="0.900"/>
<circle cx="1604.3" cy="190.2" r="1.19" opacity="0.900"/>
<circle cx="1797.9" cy="265.4" r="4.15" opacity="0.900"/>
<circle cx="1652.8" cy="207.3" r="4.01" opacity="0.900"/>
<circle cx="1344.1" cy="123.6" r="4.13" opacity="0.900"/>
<circle cx="1749.7" cy="244.9" r="4.21" opacity="0.900"/>
<circle cx="1701.5" cy="225.7" r="3.01" opacity="0.900"/>
<circle cx="1180.8" cy="99.9" r="4.14" opacity="0.900"/>
<circle cx="1392.5" cy="135.0" r="3.44" opacity="0.900"/>
<circle cx="1228.3" cy="107.9" r="1.64" opacity="0.900"/>
<circle cx="1441.0" cy="147.5" r="3.22" opacity="0.900"/>
<circle cx="1490.1" cy="161.0" r="2.00" opacity="0.900"/>
<circle cx="1929.2" cy="332.8" r="2.41" opacity="0.900"/>
<circle cx="1111.9" cy="98.1" r="2.88" opacity="0.900"/>
<circle cx="1276.2" cy="116.8" r="3.38" opacity="0.900"/>
<circle cx="654.5" cy="115.4" r="4.22" opacity="0.900"/>
<circle cx="1539.3" cy="175.8" r="1.46" opacity="0.900"/>
<circle cx="1882.0" cy="309.4" r="1.91" opacity="0.900"/>
<circle cx="1588.8" cy="191.5" r="4.03" opacity="0.900"/>
<circle cx="1833.9" cy="287.2" r="1.20" opacity="0.900"/>
<circle cx="1638.1" cy="208.4" r="3.26" opacity="0.900"/>
<circle cx="1324.6" cy="126.9" r="2.91" opacity="0.900"/>
<circle cx="1785.6" cy="265.7" r="4.26" opacity="0.900"/>
<circle cx="1687.6" cy="226.5" r="4.24" opacity="0.900"/>
<circle cx="1736.6" cy="245.5" r="4.26" opacity="0.900"/>
<circle cx="1159.2" cy="104.8" r="3.42" opacity="0.900"/>
<circle cx="1373.7" cy="138.2" r="3.37" opacity="0.900"/>
<circle cx="1207.0" cy="112.7" r="4.35" opacity="0.900"/>
<circle cx="1423.0" cy="150.4" r="3.72" opacity="0.900"/>
<circle cx="1472.9" cy="163.8" r="4.35" opacity="0.900"/>
<circle cx="1088.9" cy="104.3" r="2.99" opacity="0.900"/>
<circle cx="1919.1" cy="333.1" r="4.05" opacity="0.900"/>
<circle cx="1255.6" cy="121.5" r="2.36" opacity="0.900"/>
<circle cx="1522.7" cy="178.2" r="3.88" opacity="0.900"/>
<circle cx="1871.1" cy="310.1" r="4.22" opacity="0.900"/>
<circle cx="1573.0" cy="193.8" r="2.62" opacity="0.900"/>
<circle cx="1822.2" cy="288.1" r="2.21" opacity="0.900"/>
<circle cx="1304.7" cy="131.4" r="1.84" opacity="0.900"/>
<circle cx="1623.0" cy="210.4" r="3.06" opacity="0.900"/>
<circle cx="1773.0" cy="267.0" r="4.19" opacity="0.900"/>
<circle cx="1136.7" cy="110.6" r="3.17" opacity="0.900"/>
<circle cx="1673.3" cy="228.3" r="3.18" opacity="0.900"/>
<circle cx="1723.2" cy="247.2" r="4.39" opacity="0.900"/>
<circle cx="1354.5" cy="142.3" r="1.61" opacity="0.900"/>
<circle cx="1185.1" cy="118.2" r="2.75" opacity="0.900"/>
<circle cx="1404.4" cy="154.2" r="3.85" opacity="0.900"/>
<circle cx="1065.1" cy="111.2" r="3.89" opacity="0.900"/>
<circle cx="1455.0" cy="167.5" r="2.69" opacity="0.900"/>
<circle cx="1234.5" cy="126.9" r="4.13" opacity="0.900"/>
<circle cx="1908.8" cy="334.5" r="3.44" opacity="0.900"/>
<circle cx="1505.7" cy="181.8" r="4.20" opacity="0.900"/>
<circle cx="1860.0" cy="311.6" r="4.44" opacity="0.900"/>
<circle cx="1556.7" cy="197.1" r="3.73" opacity="0.900"/>
<circle cx="1284.2" cy="136.7" r="4.29" opacity="0.900"/>
<circle cx="1113.6" cy="117.4" r="3.52" opacity="0.900"/>
<circle cx="1810.2" cy="290.0" r="3.48" opacity="0.900"/>
<circle cx="1607.7" cy="213.6" r="3.97" opacity="0.900"/>
<circle cx="1760.2" cy="269.2" r="2.35" opacity="0.900"/>
<circle cx="1658.8" cy="231.0" r="2.25" opacity="0.900"/>
<circle cx="1709.4" cy="249.5" r="3.63" opacity="0.900"/>
<circle cx="1334.7" cy="147.4" r="3.17" opacity="0.900"/>
<circle cx="1162.6" cy="124.9" r="3.62" opacity="0.900"/>
<circle cx="1385.4" cy="159.2" r="2.00" opacity="0.900"/>
<circle cx="1436.8" cy="172.1" r="3.10" opacity="0.900"/>
<circle cx="1212.7" cy="133.4" r="3.88" opacity="0.900"/>
<circle cx="1898.4" cy="336.8" r="3.43" opacity="0.900"/>
<circle cx="1488.2" cy="186.1" r="4.29" opacity="0.900"/>
<circle cx="1540.0" cy="201.1" r="3.32" opacity="0.900"/>
<circle cx="1848.6" cy="314.5" r="3.65" opacity="0.900"/>
<circle cx="1263.0" cy="142.8" r="1.78" opacity="0.900"/>
<circle cx="1089.9" cy="125.3" r="3.81" opacity="0.900"/>
<circle cx="1591.8" cy="217.4" r="4.27" opacity="0.900"/>
<circle cx="1797.9" cy="292.9" r="4.42" opacity="0.900"/>
<circle cx="1643.8" cy="234.6" r="3.89" opacity="0.900"/>
<circle cx="1746.9" cy="272.4" r="2.79" opacity="0.900"/>
<circle cx="1695.4" cy="253.0" r="4.41" opacity="0.900"/>
<circle cx="1314.2" cy="153.4" r="2.57" opacity="0.900"/>
<circle cx="1365.8" cy="165.1" r="3.59" opacity="0.900"/>
<circle cx="1190.2" cy="140.7" r="4.04" opacity="0.900"/>
<circle cx="1417.9" cy="177.5" r="4.26" opacity="0.900"/>
<circle cx="1470.2" cy="191.6" r="4.60" opacity="0.900"/>
<circle cx="1888.0" cy="340.3" r="3.09" opacity="0.900"/>
<circle cx="1241.3" cy="149.9" r="4.22" opacity="0.900"/>
<circle cx="1522.9" cy="206.4" r="3.01" opacity="0.900"/>
<circle cx="1837.0" cy="318.0" r="2.12" opacity="0.900"/>
<circle cx="1575.5" cy="222.5" r="3.60" opacity="0.900"/>
<circle cx="1785.3" cy="296.9" r="4.50" opacity="0.900"/>
<circle cx="1628.4" cy="239.3" r="3.64" opacity="0.900"/>
<circle cx="1733.4" cy="276.8" r="2.57" opacity="0.900"/>
<circle cx="1680.9" cy="257.5" r="3.97" opacity="0.900"/>
<circle cx="1293.3" cy="160.2" r="3.81" opacity="0.900"/>
<circle cx="1345.6" cy="171.8" r="4.18" opacity="0.900"/>
<circle cx="1398.5" cy="184.3" r="3.75" opacity="0.900"/>
<circle cx="1927.9" cy="367.6" r="4.26" opacity="0.900"/>
<circle cx="1451.6" cy="197.8" r="4.14" opacity="0.900"/>
<circle cx="1876.9" cy="344.6" r="2.45" opacity="0.900"/>
<circle cx="1505.2" cy="212.5" r="2.33" opacity="0.900"/>
<circle cx="1824.9" cy="322.8" r="4.65" opacity="0.900"/>
<circle cx="1558.7" cy="228.3" r="4.33" opacity="0.900"/>
<circle cx="1772.6" cy="301.9" r="3.77" opacity="0.900"/>
<circle cx="1612.5" cy="245.1" r="3.80" opacity="0.900"/>
<circle cx="1719.4" cy="282.0" r="1.94" opacity="0.900"/>
<circle cx="1666.0" cy="263.1" r="3.49" opacity="0.900"/>
<circle cx="1271.7" cy="168.4" r="4.29" opacity="0.900"/>
<circle cx="1324.8" cy="179.7" r="3.07" opacity="0.900"/>
<circle cx="1378.6" cy="191.9" r="1.74" opacity="0.900"/>
<circle cx="1917.8" cy="373.0" r="3.83" opacity="0.900"/>
<circle cx="1432.6" cy="205.5" r="3.15" opacity="0.900"/>
<circle cx="1487.0" cy="219.8" r="3.01" opacity="0.900"/>
<circle cx="1865.8" cy="350.4" r="3.97" opacity="0.900"/>
<circle cx="1541.4" cy="235.4" r="3.77" opacity="0.900"/>
<circle cx="1812.6" cy="328.9" r="4.46" opacity="0.900"/>
<circle cx="1596.2" cy="252.1" r="2.36" opacity="0.900"/>
<circle cx="1759.2" cy="308.1" r="4.03" opacity="0.900"/>
<circle cx="1650.6" cy="269.6" r="3.86" opacity="0.900"/>
<circle cx="1705.1" cy="288.4" r="3.72" opacity="0.900"/>
<circle cx="1358.0" cy="200.7" r="4.64" opacity="0.900"/>
<circle cx="1412.8" cy="213.9" r="4.36" opacity="0.900"/>
<circle cx="1907.2" cy="379.8" r="3.75" opacity="0.900"/>
<circle cx="1468.3" cy="228.4" r="1.97" opacity="0.900"/>
<circle cx="1854.0" cy="357.5" r="4.25" opacity="0.900"/>
<circle cx="1523.7" cy="243.7" r="4.51" opacity="0.900"/>
<circle cx="1799.9" cy="336.1" r="3.14" opacity="0.900"/>
<circle cx="1579.3" cy="260.1" r="4.09" opacity="0.900"/>
<circle cx="1745.5" cy="315.5" r="4.37" opacity="0.900"/>
<circle cx="1635.1" cy="277.5" r="2.88" opacity="0.900"/>
<circle cx="1690.2" cy="296.1" r="3.59" opacity="0.900"/>
<circle cx="1392.5" cy="223.9" r="4.89" opacity="0.900"/>
<circle cx="1896.3" cy="387.6" r="4.28" opacity="0.900"/>
<circle cx="1448.9" cy="238.0" r="4.48" opacity="0.900"/>
<circle cx="1842.1" cy="365.5" r="3.88" opacity="0.900"/>
<circle cx="1505.5" cy="253.1" r="4.87" opacity="0.900"/>
<circle cx="1786.8" cy="344.4" r="3.11" opacity="0.900"/>
<circle cx="1562.0" cy="269.4" r="2.04" opacity="0.900"/>
<circle cx="1731.2" cy="324.2" r="3.98" opacity="0.900"/>
<circle cx="1618.7" cy="286.5" r="4.54" opacity="0.900"/>
<circle cx="1675.0" cy="305.0" r="4.98" opacity="0.900"/>
<circle cx="1428.9" cy="248.7" r="3.87" opacity="0.900"/>
<circle cx="1885.0" cy="396.9" r="4.18" opacity="0.900"/>
<circle cx="1486.5" cy="263.8" r="2.31" opacity="0.900"/>
<circle cx="1829.8" cy="375.2" r="4.98" opacity="0.900"/>
<circle cx="1544.0" cy="279.9" r="4.98" opacity="0.900"/>
<circle cx="1773.2" cy="354.2" r="2.73" opacity="0.900"/>
<circle cx="1601.8" cy="296.8" r="4.15" opacity="0.900"/>
<circle cx="1716.6" cy="334.2" r="3.96" opacity="0.900"/>
<circle cx="1659.2" cy="315.1" r="3.44" opacity="0.900"/>
<circle cx="1929.5" cy="430.1" r="3.96" opacity="0.900"/>
<circle cx="1408.2" cy="260.9" r="5.18" opacity="0.900"/>
<circle cx="1873.5" cy="407.7" r="2.54" opacity="0.900"/>
<circle cx="1466.9" cy="275.8" r="2.37" opacity="0.900"/>
<circle cx="1816.9" cy="385.9" r="4.71" opacity="0.900"/>
<circle cx="1525.4" cy="291.7" r="4.27" opacity="0.900"/>
<circle cx="1759.4" cy="365.5" r="4.82" opacity="0.900"/>
<circle cx="1584.4" cy="308.7" r="3.07" opacity="0.900"/>
<circle cx="1701.5" cy="345.5" r="3.05" opacity="0.900"/>
<circle cx="1642.9" cy="326.6" r="3.82" opacity="0.900"/>
<circle cx="1918.7" cy="442.0" r="2.44" opacity="0.900"/>
<circle cx="1386.8" cy="274.5" r="4.38" opacity="0.900"/>
<circle cx="1861.4" cy="419.8" r="5.29" opacity="0.900"/>
<circle cx="1446.6" cy="289.3" r="5.18" opacity="0.900"/>
<circle cx="1803.6" cy="398.3" r="4.47" opacity="0.900"/>
<circle cx="1506.3" cy="305.0" r="4.39" opacity="0.900"/>
<circle cx="1744.9" cy="377.9" r="4.13" opacity="0.900"/>
<circle cx="1566.3" cy="321.7" r="4.06" opacity="0.900"/>
<circle cx="1685.8" cy="358.1" r="1.49" opacity="0.900"/>
<circle cx="1626.0" cy="339.4" r="2.54" opacity="0.900"/>
<circle cx="1907.6" cy="455.3" r="1.70" opacity="0.900"/>
<circle cx="1425.5" cy="304.1" r="3.63" opacity="0.900"/>
<circle cx="1849.1" cy="433.6" r="5.28" opacity="0.900"/>
<circle cx="1486.4" cy="319.9" r="2.33" opacity="0.900"/>
<circle cx="1789.9" cy="412.4" r="3.11" opacity="0.900"/>
<circle cx="1547.6" cy="336.2" r="2.32" opacity="0.900"/>
<circle cx="1729.9" cy="391.9" r="5.18" opacity="0.900"/>
<circle cx="1608.4" cy="353.9" r="2.96" opacity="0.900"/>
<circle cx="1669.4" cy="372.5" r="4.96" opacity="0.900"/>
<circle cx="1896.0" cy="470.4" r="2.88" opacity="0.900"/>
<circle cx="1836.1" cy="448.8" r="3.48" opacity="0.900"/>
<circle cx="1465.8" cy="336.1" r="2.69" opacity="0.900"/>
<circle cx="1775.6" cy="427.7" r="5.31" opacity="0.900"/>
<circle cx="1528.1" cy="352.4" r="5.00" opacity="0.900"/>
<circle cx="1714.1" cy="407.6" r="3.21" opacity="0.900"/>
<circle cx="1590.3" cy="370.1" r="4.58" opacity="0.900"/>
<circle cx="1652.5" cy="388.4" r="4.51" opacity="0.900"/>
<circle cx="1883.8" cy="487.2" r="5.35" opacity="0.900"/>
<circle cx="1381.2" cy="338.5" r="4.46" opacity="0.900"/>
<circle cx="1444.3" cy="353.8" r="4.79" opacity="0.900"/>
<circle cx="1822.7" cy="465.9" r="4.78" opacity="0.900"/>
<circle cx="1508.0" cy="370.3" r="3.71" opacity="0.900"/>
<circle cx="1760.7" cy="444.9" r="3.97" opacity="0.900"/>
<circle cx="1571.5" cy="387.5" r="5.31" opacity="0.900"/>
<circle cx="1698.0" cy="425.0" r="5.20" opacity="0.900"/>
<circle cx="1635.1" cy="406.0" r="4.71" opacity="0.900"/>
<circle cx="1357.7" cy="358.2" r="5.05" opacity="0.900"/>
<circle cx="1871.4" cy="505.9" r="5.08" opacity="0.900"/>
<circle cx="1422.2" cy="373.6" r="5.68" opacity="0.900"/>
<circle cx="1808.9" cy="484.5" r="3.43" opacity="0.900"/>
<circle cx="1487.1" cy="389.6" r="3.78" opacity="0.900"/>
<circle cx="1745.3" cy="463.8" r="5.36" opacity="0.900"/>
<circle cx="1551.8" cy="406.9" r="4.26" opacity="0.900"/>
<circle cx="1681.2" cy="444.1" r="4.71" opacity="0.900"/>
<circle cx="1616.8" cy="425.2" r="3.25" opacity="0.900"/>
<circle cx="1921.5" cy="548.0" r="3.43" opacity="0.900"/>
<circle cx="1858.2" cy="526.3" r="3.72" opacity="0.900"/>
<circle cx="1399.1" cy="394.9" r="4.60" opacity="0.900"/>
<circle cx="1794.4" cy="505.2" r="4.50" opacity="0.900"/>
<circle cx="1465.4" cy="411.0" r="4.77" opacity="0.900"/>
<circle cx="1729.3" cy="484.9" r="4.81" opacity="0.900"/>
<circle cx="1531.5" cy="428.1" r="3.75" opacity="0.900"/>
<circle cx="1663.8" cy="465.0" r="4.04" opacity="0.900"/>
<circle cx="1597.8" cy="446.2" r="5.69" opacity="0.900"/>
<circle cx="1909.3" cy="570.4" r="3.40" opacity="0.900"/>
<circle cx="1375.1" cy="418.2" r="4.95" opacity="0.900"/>
<circle cx="1844.4" cy="548.5" r="5.28" opacity="0.900"/>
<circle cx="1442.7" cy="434.1" r="4.92" opacity="0.900"/>
<circle cx="1779.0" cy="527.8" r="5.20" opacity="0.900"/>
<circle cx="1510.5" cy="451.3" r="2.70" opacity="0.900"/>
<circle cx="1712.4" cy="507.3" r="2.84" opacity="0.900"/>
<circle cx="1578.0" cy="469.1" r="3.19" opacity="0.900"/>
<circle cx="1645.6" cy="487.8" r="5.07" opacity="0.900"/>
<circle cx="1896.6" cy="594.5" r="4.43" opacity="0.899"/>
<circle cx="1350.5" cy="443.2" r="6.08" opacity="0.900"/>
<circle cx="1830.1" cy="573.1" r="4.87" opacity="0.900"/>
<circle cx="1419.2" cy="459.4" r="6.12" opacity="0.900"/>
<circle cx="1763.0" cy="552.2" r="2.68" opacity="0.900"/>
<circle cx="1488.5" cy="476.4" r="5.32" opacity="0.900"/>
<circle cx="1695.0" cy="532.3" r="5.41" opacity="0.900"/>
<circle cx="1557.4" cy="494.2" r="6.16" opacity="0.900"/>
<circle cx="1626.6" cy="512.9" r="6.25" opacity="0.900"/>
<circle cx="1324.6" cy="470.4" r="5.91" opacity="0.900"/>
<circle cx="1883.1" cy="621.0" r="4.21" opacity="0.844"/>
<circle cx="1394.7" cy="486.7" r="2.60" opacity="0.900"/>
<circle cx="1815.1" cy="599.9" r="4.52" opacity="0.888"/>
<circle cx="1465.4" cy="503.4" r="4.31" opacity="0.900"/>
<circle cx="1746.4" cy="579.1" r="4.98" opacity="0.900"/>
<circle cx="1535.9" cy="521.2" r="6.04" opacity="0.900"/>
<circle cx="1676.5" cy="559.2" r="6.16" opacity="0.900"/>
<circle cx="1606.5" cy="539.6" r="3.56" opacity="0.900"/>
<circle cx="1297.6" cy="500.0" r="6.17" opacity="0.900"/>
<circle cx="1869.1" cy="649.8" r="3.77" opacity="0.784"/>
<circle cx="1369.2" cy="515.9" r="4.90" opacity="0.900"/>
<circle cx="1799.4" cy="628.8" r="5.23" opacity="0.827"/>
<circle cx="1441.4" cy="532.7" r="3.04" opacity="0.900"/>
<circle cx="1729.0" cy="608.5" r="3.08" opacity="0.870"/>
<circle cx="1513.5" cy="550.7" r="5.59" opacity="0.900"/>
<circle cx="1657.4" cy="588.4" r="5.53" opacity="0.900"/>
<circle cx="1585.7" cy="569.0" r="4.96" opacity="0.900"/>
<circle cx="1924.5" cy="702.5" r="3.75" opacity="0.674"/>
<circle cx="1269.6" cy="531.5" r="6.64" opacity="0.900"/>
<circle cx="774.4" cy="524.6" r="6.11" opacity="0.900"/>
<circle cx="1854.4" cy="681.1" r="4.21" opacity="0.718"/>
<circle cx="1342.6" cy="547.6" r="3.97" opacity="0.900"/>
<circle cx="1782.8" cy="660.3" r="3.48" opacity="0.762"/>
<circle cx="1416.4" cy="564.5" r="4.17" opacity="0.900"/>
<circle cx="1490.0" cy="582.2" r="6.61" opacity="0.900"/>
<circle cx="1710.6" cy="639.9" r="2.56" opacity="0.804"/>
<circle cx="1563.9" cy="600.6" r="6.27" opacity="0.886"/>
<circle cx="1637.3" cy="619.9" r="4.61" opacity="0.846"/>
<circle cx="735.3" cy="562.5" r="3.79" opacity="0.900"/>
<circle cx="1910.8" cy="736.2" r="5.03" opacity="0.604"/>
<circle cx="1314.9" cy="581.8" r="6.32" opacity="0.900"/>
<circle cx="1838.8" cy="714.9" r="5.30" opacity="0.648"/>
<circle cx="1390.3" cy="598.6" r="2.49" opacity="0.890"/>
<circle cx="1765.4" cy="694.3" r="3.67" opacity="0.691"/>
<circle cx="1465.5" cy="616.4" r="6.05" opacity="0.853"/>
<circle cx="1691.4" cy="673.7" r="6.40" opacity="0.734"/>
<circle cx="1541.3" cy="634.9" r="3.93" opacity="0.815"/>
<circle cx="805.2" cy="573.3" r="3.41" opacity="0.900"/>
<circle cx="1616.2" cy="653.9" r="4.25" opacity="0.775"/>
<circle cx="877.2" cy="584.6" r="4.38" opacity="0.900"/>
<circle cx="1209.9" cy="602.1" r="6.64" opacity="0.883"/>
<circle cx="1896.5" cy="772.6" r="6.08" opacity="0.528"/>
<circle cx="1285.9" cy="618.1" r="5.14" opacity="0.850"/>
<circle cx="1822.5" cy="751.5" r="4.24" opacity="0.572"/>
<circle cx="1363.0" cy="635.1" r="5.07" opacity="0.814"/>
<circle cx="1747.0" cy="730.6" r="5.68" opacity="0.615"/>
<circle cx="1439.9" cy="652.9" r="6.83" opacity="0.777"/>
<circle cx="1025.3" cy="611.2" r="6.49" opacity="0.864"/>
<circle cx="1671.2" cy="710.4" r="5.71" opacity="0.658"/>
<circle cx="1517.4" cy="671.6" r="6.71" opacity="0.738"/>
<circle cx="1594.3" cy="691.0" r="4.12" opacity="0.698"/>
<circle cx="1101.0" cy="625.5" r="7.01" opacity="0.834"/>
<circle cx="1178.2" cy="641.2" r="5.35" opacity="0.802"/>
<circle cx="1255.8" cy="657.5" r="7.12" opacity="0.768"/>
<circle cx="1881.5" cy="811.4" r="5.41" opacity="0.447"/>
<circle cx="1334.5" cy="674.4" r="5.89" opacity="0.732"/>
<circle cx="1805.2" cy="790.7" r="7.09" opacity="0.490"/>
<circle cx="989.4" cy="652.5" r="6.11" opacity="0.778"/>
<circle cx="1413.2" cy="692.6" r="6.85" opacity="0.695"/>
<circle cx="1727.9" cy="770.1" r="6.64" opacity="0.533"/>
<circle cx="1492.4" cy="711.0" r="7.06" opacity="0.656"/>
<circle cx="1650.1" cy="750.1" r="6.05" opacity="0.575"/>
<circle cx="1571.2" cy="730.2" r="6.11" opacity="0.616"/>
<circle cx="1066.5" cy="667.1" r="5.98" opacity="0.748"/>
<circle cx="1145.2" cy="682.8" r="6.82" opacity="0.715"/>
<circle cx="1224.4" cy="699.3" r="6.03" opacity="0.681"/>
<circle cx="1865.4" cy="853.8" r="5.83" opacity="0.359"/>
<circle cx="1304.7" cy="716.5" r="7.34" opacity="0.645"/>
<circle cx="952.0" cy="696.4" r="4.63" opacity="0.687"/>
<circle cx="1787.1" cy="832.9" r="6.30" opacity="0.402"/>
<circle cx="1385.2" cy="734.6" r="4.62" opacity="0.607"/>
<circle cx="1708.0" cy="812.2" r="5.66" opacity="0.445"/>
<circle cx="1466.2" cy="753.2" r="6.88" opacity="0.568"/>
<circle cx="1546.9" cy="772.4" r="5.74" opacity="0.528"/>
<circle cx="1627.8" cy="792.1" r="6.15" opacity="0.487"/>
<circle cx="1030.6" cy="711.6" r="5.65" opacity="0.655"/>
<circle cx="1110.7" cy="727.4" r="6.52" opacity="0.622"/>
<circle cx="834.4" cy="728.8" r="7.16" opacity="0.619"/>
<circle cx="1191.6" cy="744.1" r="6.74" opacity="0.587"/>
<circle cx="1927.1" cy="919.8" r="4.19" opacity="0.221"/>
<circle cx="913.2" cy="743.3" r="6.66" opacity="0.589"/>
<circle cx="1273.7" cy="761.6" r="7.38" opacity="0.551"/>
<circle cx="1848.2" cy="898.7" r="6.06" opacity="0.265"/>
<circle cx="1356.0" cy="780.0" r="5.03" opacity="0.513"/>
<circle cx="1767.8" cy="878.0" r="5.59" opacity="0.308"/>
<circle cx="1438.9" cy="798.5" r="3.51" opacity="0.474"/>
<circle cx="1686.8" cy="857.7" r="5.21" opacity="0.351"/>
<circle cx="1522.0" cy="818.1" r="3.55" opacity="0.433"/>
<circle cx="1604.3" cy="837.5" r="7.19" opacity="0.393"/>
<circle cx="993.2" cy="758.8" r="6.18" opacity="0.557"/>
<circle cx="1074.9" cy="774.9" r="2.96" opacity="0.523"/>
<circle cx="1157.4" cy="792.0" r="2.91" opacity="0.488"/>
<circle cx="1911.1" cy="968.0" r="2.70" opacity="0.121"/>
<circle cx="872.9" cy="793.3" r="5.94" opacity="0.485"/>
<circle cx="1241.2" cy="809.8" r="3.87" opacity="0.450"/>
<circle cx="1830.3" cy="947.4" r="6.93" opacity="0.164"/>
<circle cx="1325.2" cy="827.9" r="5.73" opacity="0.413"/>
<circle cx="1747.6" cy="927.0" r="7.24" opacity="0.206"/>
<circle cx="1410.2" cy="847.0" r="5.11" opacity="0.373"/>
<circle cx="954.2" cy="808.7" r="7.57" opacity="0.453"/>
<circle cx="1495.2" cy="866.2" r="4.51" opacity="0.333"/>
<circle cx="1664.3" cy="906.2" r="6.25" opacity="0.249"/>
<circle cx="1579.7" cy="886.1" r="7.51" opacity="0.291"/>
<circle cx="1037.5" cy="825.1" r="5.56" opacity="0.418"/>
<circle cx="1121.7" cy="842.9" r="4.65" opacity="0.382"/>
<circle cx="1207.3" cy="860.7" r="3.70" opacity="0.344"/>
<circle cx="1894.4" cy="1020.0" r="7.62" opacity="0.013"/>
<circle cx="1293.7" cy="879.4" r="6.50" opacity="0.305"/>
<circle cx="1811.0" cy="999.3" r="5.84" opacity="0.056"/>
<circle cx="1380.1" cy="898.6" r="2.32" opacity="0.265"/>
<circle cx="1726.1" cy="978.8" r="7.91" opacity="0.098"/>
<circle cx="1467.2" cy="918.0" r="6.95" opacity="0.225"/>
<circle cx="1640.6" cy="958.5" r="7.66" opacity="0.141"/>
<circle cx="1553.8" cy="937.9" r="5.13" opacity="0.184"/>
<circle cx="1171.8" cy="915.1" r="5.89" opacity="0.231"/>
<circle cx="1876.3" cy="1075.3" r="7.85" opacity="0.000"/>
<circle cx="1260.1" cy="934.2" r="5.98" opacity="0.191"/>
<circle cx="1790.7" cy="1054.5" r="6.46" opacity="0.000"/>
<circle cx="1348.6" cy="953.7" r="3.52" opacity="0.151"/>
<circle cx="1703.4" cy="1034.5" r="6.16" opacity="0.000"/>
<circle cx="1437.8" cy="973.4" r="6.84" opacity="0.109"/>
<circle cx="1615.6" cy="1014.1" r="2.79" opacity="0.025"/>
<circle cx="1526.6" cy="993.5" r="6.55" opacity="0.068"/>
<circle cx="1406.9" cy="1032.3" r="7.67" opacity="0.000"/>
<circle cx="1497.9" cy="1052.7" r="3.23" opacity="0.000"/>
<circle cx="1589.2" cy="1073.1" r="4.26" opacity="0.000"/>
</g>
</svg>
